运行 java测试 案例 com.example.demo.FFmpegJNITest
sbc run -t -v /home/user/JAVA-TEST/java-rtf-test/ffmpeg/files:/tmp@/home/user/JAVA-TEST/java-rtf-test/rmi.sh:/opt/app/lib/logback-classic-1.2.3.jar@/home/user/JAVA-TEST/java-rtf-test/test-classes/com:/opt/app/test-classes/com -p docker.bplatform.demo/java_rtf_sw:2.1 docker.bplatform.demo/java_rtf_test_all:1.0  /opt/app/runTest com.example.demo.FFmpegJNITest encode_video /tmp/02.yuv /tmp/02.mpg
TEST_DIR=/opt/app
/usr/lib/jvm/java-11-openjdk-sw_64/bin/java -classpath /opt/app/lib/*:/opt/app/classes:/opt/app/test-classes com.example.demo.FFmpegJNITest encode_video /tmp/02.yuv /tmp/02.mpg
视频编码
Output #0, mpeg, to '/tmp/02.mpg':
    Stream #0:0: Video: mpeg1video, yuv420p, 640x480, q=2-31, 400 kb/s, 25 tbn
[48;5;0m[38;5;213m[mpeg @ 0x41e8e076cd90] [0m[48;5;0m[38;5;226mVBV buffer size not set, using default size of 230KB
If you want the mpeg file to be compliant to some specification
Like DVD, VCD or others, make sure you set the correct buffer size
[0mpts:0 pts_time:0 dts:-3600 dts_time:-0.04 duration:0 duration_time:0 stream_index:0
pts:3600 pts_time:0.04 dts:0 dts_time:0 duration:0 duration_time:0 stream_index:0
[48;5;0m[38;5;213m[mpeg @ 0x41e8e076cd90] [0m[48;5;0m[38;5;196mbuffer underflow st=0 bufi=16542 size=17883
[0mpts:7200 pts_time:0.08 dts:3600 dts_time:0.04 duration:0 duration_time:0 stream_index:0
[48;5;0m[38;5;213m[mpeg @ 0x41e8e076cd90] [0m[48;5;0m[38;5;196mbuffer underflow st=0 bufi=691 size=5847
[0m[48;5;0m[38;5;213m[mpeg @ 0x41e8e076cd90] [0m[48;5;0m[38;5;196mbuffer underflow st=0 bufi=2732 size=5847
[0m[48;5;0m[38;5;213m[mpeg @ 0x41e8e076cd90] [0m[48;5;0m[38;5;196mbuffer underflow st=0 bufi=4773 size=5847
[0mpts:10800 pts_time:0.12 dts:7200 dts_time:0.08 duration:0 duration_time:0 stream_index:0
[48;5;0m[38;5;213m[mpeg @ 0x41e8e076cd90] [0m[48;5;0m[38;5;196mbuffer underflow st=0 bufi=958 size=20045
[0m[48;5;0m[38;5;213m[mpeg @ 0x41e8e076cd90] [0m[48;5;0m[38;5;196mbuffer underflow st=0 bufi=2999 size=20045
[0m[48;5;0m[38;5;213m[mpeg @ 0x41e8e076cd90] [0m[48;5;0m[38;5;196mbuffer underflow st=0 bufi=5040 size=20045
[0m[48;5;0m[38;5;213m[mpeg @ 0x41e8e076cd90] [0m[48;5;0m[38;5;196mbuffer underflow st=0 bufi=7081 size=20045
[0m[48;5;0m[38;5;213m[mpeg @ 0x41e8e076cd90] [0m[48;5;0m[38;5;196mbuffer underflow st=0 bufi=9122 size=20045
[0m[48;5;0m[38;5;213m[mpeg @ 0x41e8e076cd90] [0m[48;5;0m[38;5;196mbuffer underflow st=0 bufi=11163 size=20045
[0m[48;5;0m[38;5;213m[mpeg @ 0x41e8e076cd90] [0m[48;5;0m[38;5;196mbuffer underflow st=0 bufi=13204 size=20045
[0m[48;5;0m[38;5;213m[mpeg @ 0x41e8e076cd90] [0m[48;5;0m[38;5;196mbuffer underflow st=0 bufi=15245 size=20045
[0m[48;5;0m[38;5;213m[mpeg @ 0x41e8e076cd90] [0m[48;5;0m[38;5;196mbuffer underflow st=0 bufi=17286 size=20045
[0m[48;5;0m[38;5;213m[mpeg @ 0x41e8e076cd90] [0m[48;5;0m[38;5;196mbuffer underflow st=0 bufi=19327 size=20045
[0mpts:14400 pts_time:0.16 dts:10800 dts_time:0.12 duration:0 duration_time:0 stream_index:0
[48;5;0m[38;5;213m[mpeg @ 0x41e8e076cd90] [0m[48;5;0m[38;5;196mbuffer underflow st=0 bufi=1314 size=3678
[0m[48;5;0m[38;5;213m[mpeg @ 0x41e8e076cd90] [0m[48;5;0m[38;5;196mbuffer underflow st=0 bufi=3355 size=3678
[0mpts:18000 pts_time:0.2 dts:14400 dts_time:0.16 duration:0 duration_time:0 stream_index:0
[48;5;0m[38;5;213m[mpeg @ 0x41e8e076cd90] [0m[48;5;0m[38;5;196mbuffer underflow st=0 bufi=1709 size=2539
[0mpts:21600 pts_time:0.24 dts:18000 dts_time:0.2 duration:0 duration_time:0 stream_index:0
[48;5;0m[38;5;213m[mpeg @ 0x41e8e076cd90] [0m[48;5;0m[38;5;196mbuffer underflow st=0 bufi=1202 size=2903
[0mpts:25200 pts_time:0.28 dts:21600 dts_time:0.24 duration:0 duration_time:0 stream_index:0
[48;5;0m[38;5;213m[mpeg @ 0x41e8e076cd90] [0m[48;5;0m[38;5;196mbuffer underflow st=0 bufi=331 size=2765
[0m[48;5;0m[38;5;213m[mpeg @ 0x41e8e076cd90] [0m[48;5;0m[38;5;196mbuffer underflow st=0 bufi=2372 size=2765
[0mpts:28800 pts_time:0.32 dts:25200 dts_time:0.28 duration:0 duration_time:0 stream_index:0
[48;5;0m[38;5;213m[mpeg @ 0x41e8e076cd90] [0m[48;5;0m[38;5;196mbuffer underflow st=0 bufi=1639 size=2553
[0mpts:32400 pts_time:0.36 dts:28800 dts_time:0.32 duration:0 duration_time:0 stream_index:0
[48;5;0m[38;5;213m[mpeg @ 0x41e8e076cd90] [0m[48;5;0m[38;5;196mbuffer underflow st=0 bufi=1118 size=2628
[0mpts:36000 pts_time:0.4 dts:32400 dts_time:0.36 duration:0 duration_time:0 stream_index:0
pts:39600 pts_time:0.44 dts:36000 dts_time:0.4 duration:0 duration_time:0 stream_index:0
[48;5;0m[38;5;213m[mpeg @ 0x41e8e076cd90] [0m[48;5;0m[38;5;196mbuffer underflow st=0 bufi=61 size=688
[0mpts:43200 pts_time:0.48 dts:39600 dts_time:0.44 duration:0 duration_time:0 stream_index:0
pts:46800 pts_time:0.52 dts:43200 dts_time:0.48 duration:0 duration_time:0 stream_index:0
[48;5;0m[38;5;213m[mpeg @ 0x41e8e076cd90] [0m[48;5;0m[38;5;196mbuffer underflow st=0 bufi=299 size=18028
[0m[48;5;0m[38;5;213m[mpeg @ 0x41e8e076cd90] [0m[48;5;0m[38;5;196mbuffer underflow st=0 bufi=2340 size=18028
[0m[48;5;0m[38;5;213m[mpeg @ 0x41e8e076cd90] [0m[48;5;0m[38;5;196mbuffer underflow st=0 bufi=4381 size=18028
[0m[48;5;0m[38;5;213m[mpeg @ 0x41e8e076cd90] [0m[48;5;0m[38;5;196mbuffer underflow st=0 bufi=6422 size=18028
[0m[48;5;0m[38;5;213m[mpeg @ 0x41e8e076cd90] [0m[48;5;0m[38;5;196mbuffer underflow st=0 bufi=8463 size=18028
[0m[48;5;0m[38;5;213m[mpeg @ 0x41e8e076cd90] [0m[48;5;0m[38;5;196mbuffer underflow st=0 bufi=10504 size=18028
[0m[48;5;0m[38;5;213m[mpeg @ 0x41e8e076cd90] [0m[48;5;0m[38;5;196mbuffer underflow st=0 bufi=12545 size=18028
[0m[48;5;0m[38;5;213m[mpeg @ 0x41e8e076cd90] [0m[48;5;0m[38;5;196mbuffer underflow st=0 bufi=14586 size=18028
[0m[48;5;0m[38;5;213m[mpeg @ 0x41e8e076cd90] [0m[48;5;0m[38;5;196mbuffer underflow st=0 bufi=16627 size=18028
[0mpts:50400 pts_time:0.56 dts:46800 dts_time:0.52 duration:0 duration_time:0 stream_index:0
[48;5;0m[38;5;213m[mpeg @ 0x41e8e076cd90] [0m[48;5;0m[38;5;196mbuffer underflow st=0 bufi=631 size=3400
[0m[48;5;0m[38;5;213m[mpeg @ 0x41e8e076cd90] [0m[48;5;0m[38;5;196mbuffer underflow st=0 bufi=2672 size=3400
[0mpts:54000 pts_time:0.6 dts:50400 dts_time:0.56 duration:0 duration_time:0 stream_index:0
[48;5;0m[38;5;213m[mpeg @ 0x41e8e076cd90] [0m[48;5;0m[38;5;196mbuffer underflow st=0 bufi=1304 size=25781
[0m[48;5;0m[38;5;213m[mpeg @ 0x41e8e076cd90] [0m[48;5;0m[38;5;196mbuffer underflow st=0 bufi=3345 size=25781
[0m[48;5;0m[38;5;213m[mpeg @ 0x41e8e076cd90] [0m[48;5;0m[38;5;196mbuffer underflow st=0 bufi=5386 size=25781
[0m[48;5;0m[38;5;213m[mpeg @ 0x41e8e076cd90] [0m[48;5;0m[38;5;196mbuffer underflow st=0 bufi=7427 size=25781
[0m[48;5;0m[38;5;213m[mpeg @ 0x41e8e076cd90] [0m[48;5;0m[38;5;196mbuffer underflow st=0 bufi=9456 size=25781
[0m[48;5;0m[38;5;213m[mpeg @ 0x41e8e076cd90] [0m[48;5;0m[38;5;196mbuffer underflow st=0 bufi=11497 size=25781
[0m[48;5;0m[38;5;213m[mpeg @ 0x41e8e076cd90] [0m[48;5;0m[38;5;196mbuffer underflow st=0 bufi=13538 size=25781
[0m[48;5;0m[38;5;213m[mpeg @ 0x41e8e076cd90] [0m[48;5;0m[38;5;196mbuffer underflow st=0 bufi=15579 size=25781
[0m[48;5;0m[38;5;213m[mpeg @ 0x41e8e076cd90] [0m[48;5;0m[38;5;196mbuffer underflow st=0 bufi=17620 size=25781
[0m[48;5;0m[38;5;213m[mpeg @ 0x41e8e076cd90] [0m[48;5;0m[38;5;196mbuffer underflow st=0 bufi=19661 size=25781
[0m[48;5;0m[38;5;213m[mpeg @ 0x41e8e076cd90] [0m[48;5;0m[38;5;196mbuffer underflow st=0 bufi=21702 size=25781
[0m[48;5;0m[38;5;213m[mpeg @ 0x41e8e076cd90] [0m[48;5;0m[38;5;196mbuffer underflow st=0 bufi=23743 size=25781
[0mpts:57600 pts_time:0.64 dts:54000 dts_time:0.6 duration:0 duration_time:0 stream_index:0
[48;5;0m[38;5;213m[mpeg @ 0x41e8e076cd90] [0m[48;5;0m[38;5;196mbuffer underflow st=0 bufi=3 size=2974
[0m[48;5;0m[38;5;213m[mpeg @ 0x41e8e076cd90] [0m[48;5;0m[38;5;196mbuffer underflow st=0 bufi=2044 size=2974
[0mpts:61200 pts_time:0.68 dts:57600 dts_time:0.64 duration:0 duration_time:0 stream_index:0
[48;5;0m[38;5;213m[mpeg @ 0x41e8e076cd90] [0m[48;5;0m[38;5;196mbuffer underflow st=0 bufi=1102 size=8980
[0m[48;5;0m[38;5;213m[mpeg @ 0x41e8e076cd90] [0m[48;5;0m[38;5;196mbuffer underflow st=0 bufi=3143 size=8980
[0m[48;5;0m[38;5;213m[mpeg @ 0x41e8e076cd90] [0m[48;5;0m[38;5;196mbuffer underflow st=0 bufi=5184 size=8980
[0m[48;5;0m[38;5;213m[mpeg @ 0x41e8e076cd90] [0m[48;5;0m[38;5;196mbuffer underflow st=0 bufi=7225 size=8980
[0mpts:64800 pts_time:0.72 dts:61200 dts_time:0.68 duration:0 duration_time:0 stream_index:0
[48;5;0m[38;5;213m[mpeg @ 0x41e8e076cd90] [0m[48;5;0m[38;5;196mbuffer underflow st=0 bufi=277 size=783
[0mpts:68400 pts_time:0.76 dts:64800 dts_time:0.72 duration:0 duration_time:0 stream_index:0
[48;5;0m[38;5;213m[mpeg @ 0x41e8e076cd90] [0m[48;5;0m[38;5;196mbuffer underflow st=0 bufi=1526 size=9022
[0m[48;5;0m[38;5;213m[mpeg @ 0x41e8e076cd90] [0m[48;5;0m[38;5;196mbuffer underflow st=0 bufi=3567 size=9022
[0m[48;5;0m[38;5;213m[mpeg @ 0x41e8e076cd90] [0m[48;5;0m[38;5;196mbuffer underflow st=0 bufi=5608 size=9022
[0m[48;5;0m[38;5;213m[mpeg @ 0x41e8e076cd90] [0m[48;5;0m[38;5;196mbuffer underflow st=0 bufi=7649 size=9022
[0mpts:72000 pts_time:0.8 dts:68400 dts_time:0.76 duration:0 duration_time:0 stream_index:0
[48;5;0m[38;5;213m[mpeg @ 0x41e8e076cd90] [0m[48;5;0m[38;5;196mbuffer underflow st=0 bufi=659 size=1119
[0mpts:75600 pts_time:0.84 dts:72000 dts_time:0.8 duration:0 duration_time:0 stream_index:0
[48;5;0m[38;5;213m[mpeg @ 0x41e8e076cd90] [0m[48;5;0m[38;5;196mbuffer underflow st=0 bufi=1572 size=7610
[0m[48;5;0m[38;5;213m[mpeg @ 0x41e8e076cd90] [0m[48;5;0m[38;5;196mbuffer underflow st=0 bufi=3613 size=7610
[0m[48;5;0m[38;5;213m[mpeg @ 0x41e8e076cd90] [0m[48;5;0m[38;5;196mbuffer underflow st=0 bufi=5654 size=7610
[0mpts:79200 pts_time:0.88 dts:75600 dts_time:0.84 duration:0 duration_time:0 stream_index:0
[48;5;0m[38;5;213m[mpeg @ 0x41e8e076cd90] [0m[48;5;0m[38;5;196mbuffer underflow st=0 bufi=76 size=582
[0mpts:82800 pts_time:0.92 dts:79200 dts_time:0.88 duration:0 duration_time:0 stream_index:0
[48;5;0m[38;5;213m[mpeg @ 0x41e8e076cd90] [0m[48;5;0m[38;5;196mbuffer underflow st=0 bufi=1526 size=7667
[0m[48;5;0m[38;5;213m[mpeg @ 0x41e8e076cd90] [0m[48;5;0m[38;5;196mbuffer underflow st=0 bufi=3567 size=7667
[0m[48;5;0m[38;5;213m[mpeg @ 0x41e8e076cd90] [0m[48;5;0m[38;5;196mbuffer underflow st=0 bufi=5608 size=7667
[0m[48;5;0m[38;5;213m[mpeg @ 0x41e8e076cd90] [0m[48;5;0m[38;5;196mbuffer underflow st=0 bufi=7649 size=7667
[0mpts:86400 pts_time:0.96 dts:82800 dts_time:0.92 duration:0 duration_time:0 stream_index:0
pts:90000 pts_time:1 dts:86400 dts_time:0.96 duration:0 duration_time:0 stream_index:0
[48;5;0m[38;5;213m[mpeg @ 0x41e8e076cd90] [0m[48;5;0m[38;5;196mbuffer underflow st=0 bufi=980 size=3825
[0m[48;5;0m[38;5;213m[mpeg @ 0x41e8e076cd90] [0m[48;5;0m[38;5;196mbuffer underflow st=0 bufi=3021 size=3825
[0mpts:93600 pts_time:1.04 dts:90000 dts_time:1 duration:0 duration_time:0 stream_index:0
pts:97200 pts_time:1.08 dts:93600 dts_time:1.04 duration:0 duration_time:0 stream_index:0
[48;5;0m[38;5;213m[mpeg @ 0x41e8e076cd90] [0m[48;5;0m[38;5;196mbuffer underflow st=0 bufi=816 size=13541
[0m[48;5;0m[38;5;213m[mpeg @ 0x41e8e076cd90] [0m[48;5;0m[38;5;196mbuffer underflow st=0 bufi=2857 size=13541
[0m[48;5;0m[38;5;213m[mpeg @ 0x41e8e076cd90] [0m[48;5;0m[38;5;196mbuffer underflow st=0 bufi=4898 size=13541
[0m[48;5;0m[38;5;213m[mpeg @ 0x41e8e076cd90] [0m[48;5;0m[38;5;196mbuffer underflow st=0 bufi=6939 size=13541
[0m[48;5;0m[38;5;213m[mpeg @ 0x41e8e076cd90] [0m[48;5;0m[38;5;196mbuffer underflow st=0 bufi=8980 size=13541
[0m[48;5;0m[38;5;213m[mpeg @ 0x41e8e076cd90] [0m[48;5;0m[38;5;196mbuffer underflow st=0 bufi=11021 size=13541
[0m[48;5;0m[38;5;213m[mpeg @ 0x41e8e076cd90] [0m[48;5;0m[38;5;196mbuffer underflow st=0 bufi=13062 size=13541
[0mpts:100800 pts_time:1.12 dts:97200 dts_time:1.08 duration:0 duration_time:0 stream_index:0
pts:104400 pts_time:1.16 dts:100800 dts_time:1.12 duration:0 duration_time:0 stream_index:0
[48;5;0m[38;5;213m[mpeg @ 0x41e8e076cd90] [0m[48;5;0m[38;5;196mbuffer underflow st=0 bufi=1291 size=2213
[0mpts:108000 pts_time:1.2 dts:104400 dts_time:1.16 duration:0 duration_time:0 stream_index:0
pts:111600 pts_time:1.24 dts:108000 dts_time:1.2 duration:0 duration_time:0 stream_index:0
[48;5;0m[38;5;213m[mpeg @ 0x41e8e076cd90] [0m[48;5;0m[38;5;196mbuffer underflow st=0 bufi=769 size=1140
[0mpts:115200 pts_time:1.28 dts:111600 dts_time:1.24 duration:0 duration_time:0 stream_index:0
pts:118800 pts_time:1.32 dts:115200 dts_time:1.28 duration:0 duration_time:0 stream_index:0
[48;5;0m[38;5;213m[mpeg @ 0x41e8e076cd90] [0m[48;5;0m[38;5;196mbuffer underflow st=0 bufi=223 size=8184
[0m[48;5;0m[38;5;213m[mpeg @ 0x41e8e076cd90] [0m[48;5;0m[38;5;196mbuffer underflow st=0 bufi=2264 size=8184
[0m[48;5;0m[38;5;213m[mpeg @ 0x41e8e076cd90] [0m[48;5;0m[38;5;196mbuffer underflow st=0 bufi=4305 size=8184
[0m[48;5;0m[38;5;213m[mpeg @ 0x41e8e076cd90] [0m[48;5;0m[38;5;196mbuffer underflow st=0 bufi=6346 size=8184
[0mpts:122400 pts_time:1.36 dts:118800 dts_time:1.32 duration:0 duration_time:0 stream_index:0
[48;5;0m[38;5;213m[mpeg @ 0x41e8e076cd90] [0m[48;5;0m[38;5;196mbuffer underflow st=0 bufi=194 size=509
[0mpts:126000 pts_time:1.4 dts:122400 dts_time:1.36 duration:0 duration_time:0 stream_index:0
pts:129600 pts_time:1.44 dts:126000 dts_time:1.4 duration:0 duration_time:0 stream_index:0
pts:133200 pts_time:1.48 dts:129600 dts_time:1.44 duration:0 duration_time:0 stream_index:0
[48;5;0m[38;5;213m[mpeg @ 0x41e8e076cd90] [0m[48;5;0m[38;5;196mbuffer underflow st=0 bufi=50 size=6185
[0m[48;5;0m[38;5;213m[mpeg @ 0x41e8e076cd90] [0m[48;5;0m[38;5;196mbuffer underflow st=0 bufi=2091 size=6185
[0m[48;5;0m[38;5;213m[mpeg @ 0x41e8e076cd90] [0m[48;5;0m[38;5;196mbuffer underflow st=0 bufi=4132 size=6185
[0m[48;5;0m[38;5;213m[mpeg @ 0x41e8e076cd90] [0m[48;5;0m[38;5;196mbuffer underflow st=0 bufi=6173 size=6185
[0mpts:136800 pts_time:1.52 dts:133200 dts_time:1.48 duration:0 duration_time:0 stream_index:0
pts:140400 pts_time:1.56 dts:136800 dts_time:1.52 duration:0 duration_time:0 stream_index:0
[48;5;0m[38;5;213m[mpeg @ 0x41e8e076cd90] [0m[48;5;0m[38;5;196mbuffer underflow st=0 bufi=1574 size=14824
[0m[48;5;0m[38;5;213m[mpeg @ 0x41e8e076cd90] [0m[48;5;0m[38;5;196mbuffer underflow st=0 bufi=3615 size=14824
[0m[48;5;0m[38;5;213m[mpeg @ 0x41e8e076cd90] [0m[48;5;0m[38;5;196mbuffer underflow st=0 bufi=5656 size=14824
[0m[48;5;0m[38;5;213m[mpeg @ 0x41e8e076cd90] [0m[48;5;0m[38;5;196mbuffer underflow st=0 bufi=7697 size=14824
[0m[48;5;0m[38;5;213m[mpeg @ 0x41e8e076cd90] [0m[48;5;0m[38;5;196mbuffer underflow st=0 bufi=9726 size=14824
[0m[48;5;0m[38;5;213m[mpeg @ 0x41e8e076cd90] [0m[48;5;0m[38;5;196mbuffer underflow st=0 bufi=11767 size=14824
[0m[48;5;0m[38;5;213m[mpeg @ 0x41e8e076cd90] [0m[48;5;0m[38;5;196mbuffer underflow st=0 bufi=13808 size=14824
[0mpts:144000 pts_time:1.6 dts:140400 dts_time:1.56 duration:0 duration_time:0 stream_index:0
pts:147600 pts_time:1.64 dts:144000 dts_time:1.6 duration:0 duration_time:0 stream_index:0
[48;5;0m[38;5;213m[mpeg @ 0x41e8e076cd90] [0m[48;5;0m[38;5;196mbuffer underflow st=0 bufi=721 size=980
[0mpts:151200 pts_time:1.68 dts:147600 dts_time:1.64 duration:0 duration_time:0 stream_index:0
pts:154800 pts_time:1.72 dts:151200 dts_time:1.68 duration:0 duration_time:0 stream_index:0
[48;5;0m[38;5;213m[mpeg @ 0x41e8e076cd90] [0m[48;5;0m[38;5;196mbuffer underflow st=0 bufi=1046 size=1394
[0mpts:158400 pts_time:1.76 dts:154800 dts_time:1.72 duration:0 duration_time:0 stream_index:0
[48;5;0m[38;5;213m[mpeg @ 0x41e8e076cd90] [0m[48;5;0m[38;5;196mbuffer underflow st=0 bufi=1684 size=5069
[0m[48;5;0m[38;5;213m[mpeg @ 0x41e8e076cd90] [0m[48;5;0m[38;5;196mbuffer underflow st=0 bufi=3725 size=5069
[0mpts:162000 pts_time:1.8 dts:158400 dts_time:1.76 duration:0 duration_time:0 stream_index:0
pts:165600 pts_time:1.84 dts:162000 dts_time:1.8 duration:0 duration_time:0 stream_index:0
[48;5;0m[38;5;213m[mpeg @ 0x41e8e076cd90] [0m[48;5;0m[38;5;196mbuffer underflow st=0 bufi=350 size=593
[0mpts:169200 pts_time:1.88 dts:165600 dts_time:1.84 duration:0 duration_time:0 stream_index:0
[48;5;0m[38;5;213m[mpeg @ 0x41e8e076cd90] [0m[48;5;0m[38;5;196mbuffer underflow st=0 bufi=1789 size=1988
[0mpts:172800 pts_time:1.92 dts:169200 dts_time:1.88 duration:0 duration_time:0 stream_index:0
pts:176400 pts_time:1.96 dts:172800 dts_time:1.92 duration:0 duration_time:0 stream_index:0
pts:180000 pts_time:2 dts:176400 dts_time:1.96 duration:0 duration_time:0 stream_index:0
[48;5;0m[38;5;213m[mpeg @ 0x41e8e076cd90] [0m[48;5;0m[38;5;196mbuffer underflow st=0 bufi=124 size=1767
[0mpts:183600 pts_time:2.04 dts:180000 dts_time:2 duration:0 duration_time:0 stream_index:0
[48;5;0m[38;5;213m[mpeg @ 0x41e8e076cd90] [0m[48;5;0m[38;5;196mbuffer underflow st=0 bufi=389 size=19503
[0m[48;5;0m[38;5;213m[mpeg @ 0x41e8e076cd90] [0m[48;5;0m[38;5;196mbuffer underflow st=0 bufi=2430 size=19503
[0m[48;5;0m[38;5;213m[mpeg @ 0x41e8e076cd90] [0m[48;5;0m[38;5;196mbuffer underflow st=0 bufi=4471 size=19503
[0m[48;5;0m[38;5;213m[mpeg @ 0x41e8e076cd90] [0m[48;5;0m[38;5;196mbuffer underflow st=0 bufi=6512 size=19503
[0m[48;5;0m[38;5;213m[mpeg @ 0x41e8e076cd90] [0m[48;5;0m[38;5;196mbuffer underflow st=0 bufi=8553 size=19503
[0m[48;5;0m[38;5;213m[mpeg @ 0x41e8e076cd90] [0m[48;5;0m[38;5;196mbuffer underflow st=0 bufi=10594 size=19503
[0m[48;5;0m[38;5;213m[mpeg @ 0x41e8e076cd90] [0m[48;5;0m[38;5;196mbuffer underflow st=0 bufi=12635 size=19503
[0m[48;5;0m[38;5;213m[mpeg @ 0x41e8e076cd90] [0m[48;5;0m[38;5;196mbuffer underflow st=0 bufi=14676 size=19503
[0m[48;5;0m[38;5;213m[mpeg @ 0x41e8e076cd90] [0m[48;5;0m[38;5;196mbuffer underflow st=0 bufi=16717 size=19503
[0m[48;5;0m[38;5;213m[mpeg @ 0x41e8e076cd90] [0m[48;5;0m[38;5;196mbuffer underflow st=0 bufi=18758 size=19503
[0mpts:187200 pts_time:2.08 dts:183600 dts_time:2.04 duration:0 duration_time:0 stream_index:0
pts:190800 pts_time:2.12 dts:187200 dts_time:2.08 duration:0 duration_time:0 stream_index:0
[48;5;0m[38;5;213m[mpeg @ 0x41e8e076cd90] [0m[48;5;0m[38;5;196mbuffer underflow st=0 bufi=1136 size=2961
[0mpts:194400 pts_time:2.16 dts:190800 dts_time:2.12 duration:0 duration_time:0 stream_index:0
[48;5;0m[38;5;213m[mpeg @ 0x41e8e076cd90] [0m[48;5;0m[38;5;196mbuffer underflow st=0 bufi=207 size=360
[0mpts:198000 pts_time:2.2 dts:194400 dts_time:2.16 duration:0 duration_time:0 stream_index:0
pts:201600 pts_time:2.24 dts:198000 dts_time:2.2 duration:0 duration_time:0 stream_index:0
[48;5;0m[38;5;213m[mpeg @ 0x41e8e076cd90] [0m[48;5;0m[38;5;196mbuffer underflow st=0 bufi=69 size=442
[0mpts:205200 pts_time:2.28 dts:201600 dts_time:2.24 duration:0 duration_time:0 stream_index:0
pts:208800 pts_time:2.32 dts:205200 dts_time:2.28 duration:0 duration_time:0 stream_index:0
pts:212400 pts_time:2.36 dts:208800 dts_time:2.32 duration:0 duration_time:0 stream_index:0
[48;5;0m[38;5;213m[mpeg @ 0x41e8e076cd90] [0m[48;5;0m[38;5;196mbuffer underflow st=0 bufi=130 size=337
[0mpts:216000 pts_time:2.4 dts:212400 dts_time:2.36 duration:0 duration_time:0 stream_index:0
pts:219600 pts_time:2.44 dts:216000 dts_time:2.4 duration:0 duration_time:0 stream_index:0
[48;5;0m[38;5;213m[mpeg @ 0x41e8e076cd90] [0m[48;5;0m[38;5;196mbuffer underflow st=0 bufi=720 size=3639
[0m[48;5;0m[38;5;213m[mpeg @ 0x41e8e076cd90] [0m[48;5;0m[38;5;196mbuffer underflow st=0 bufi=2761 size=3639
[0mpts:223200 pts_time:2.48 dts:219600 dts_time:2.44 duration:0 duration_time:0 stream_index:0
pts:226800 pts_time:2.52 dts:223200 dts_time:2.48 duration:0 duration_time:0 stream_index:0
[48;5;0m[38;5;213m[mpeg @ 0x41e8e076cd90] [0m[48;5;0m[38;5;196mbuffer underflow st=0 bufi=736 size=19292
[0m[48;5;0m[38;5;213m[mpeg @ 0x41e8e076cd90] [0m[48;5;0m[38;5;196mbuffer underflow st=0 bufi=2777 size=19292
[0m[48;5;0m[38;5;213m[mpeg @ 0x41e8e076cd90] [0m[48;5;0m[38;5;196mbuffer underflow st=0 bufi=4818 size=19292
[0m[48;5;0m[38;5;213m[mpeg @ 0x41e8e076cd90] [0m[48;5;0m[38;5;196mbuffer underflow st=0 bufi=6859 size=19292
[0m[48;5;0m[38;5;213m[mpeg @ 0x41e8e076cd90] [0m[48;5;0m[38;5;196mbuffer underflow st=0 bufi=8900 size=19292
[0m[48;5;0m[38;5;213m[mpeg @ 0x41e8e076cd90] [0m[48;5;0m[38;5;196mbuffer underflow st=0 bufi=10941 size=19292
[0m[48;5;0m[38;5;213m[mpeg @ 0x41e8e076cd90] [0m[48;5;0m[38;5;196mbuffer underflow st=0 bufi=12982 size=19292
[0m[48;5;0m[38;5;213m[mpeg @ 0x41e8e076cd90] [0m[48;5;0m[38;5;196mbuffer underflow st=0 bufi=15023 size=19292
[0m[48;5;0m[38;5;213m[mpeg @ 0x41e8e076cd90] [0m[48;5;0m[38;5;196mbuffer underflow st=0 bufi=17064 size=19292
[0m[48;5;0m[38;5;213m[mpeg @ 0x41e8e076cd90] [0m[48;5;0m[38;5;196mbuffer underflow st=0 bufi=19105 size=19292
[0mpts:230400 pts_time:2.56 dts:226800 dts_time:2.52 duration:0 duration_time:0 stream_index:0
pts:234000 pts_time:2.6 dts:230400 dts_time:2.56 duration:0 duration_time:0 stream_index:0
pts:237600 pts_time:2.64 dts:234000 dts_time:2.6 duration:0 duration_time:0 stream_index:0
pts:241200 pts_time:2.68 dts:237600 dts_time:2.64 duration:0 duration_time:0 stream_index:0
[48;5;0m[38;5;213m[mpeg @ 0x41e8e076cd90] [0m[48;5;0m[38;5;196mbuffer underflow st=0 bufi=240 size=2786
[0m[48;5;0m[38;5;213m[mpeg @ 0x41e8e076cd90] [0m[48;5;0m[38;5;196mbuffer underflow st=0 bufi=2281 size=2786
[0mpts:244800 pts_time:2.72 dts:241200 dts_time:2.68 duration:0 duration_time:0 stream_index:0
[48;5;0m[38;5;213m[mpeg @ 0x41e8e076cd90] [0m[48;5;0m[38;5;196mbuffer underflow st=0 bufi=1527 size=1753
[0mpts:248400 pts_time:2.76 dts:244800 dts_time:2.72 duration:0 duration_time:0 stream_index:0
pts:252000 pts_time:2.8 dts:248400 dts_time:2.76 duration:0 duration_time:0 stream_index:0
pts:255600 pts_time:2.84 dts:252000 dts_time:2.8 duration:0 duration_time:0 stream_index:0
[48;5;0m[38;5;213m[mpeg @ 0x41e8e076cd90] [0m[48;5;0m[38;5;196mbuffer underflow st=0 bufi=1470 size=2415
[0mpts:259200 pts_time:2.88 dts:255600 dts_time:2.84 duration:0 duration_time:0 stream_index:0
pts:262800 pts_time:2.92 dts:259200 dts_time:2.88 duration:0 duration_time:0 stream_index:0
[48;5;0m[38;5;213m[mpeg @ 0x41e8e076cd90] [0m[48;5;0m[38;5;196mbuffer underflow st=0 bufi=975 size=4593
[0m[48;5;0m[38;5;213m[mpeg @ 0x41e8e076cd90] [0m[48;5;0m[38;5;196mbuffer underflow st=0 bufi=3016 size=4593
[0mpts:266400 pts_time:2.96 dts:262800 dts_time:2.92 duration:0 duration_time:0 stream_index:0
[48;5;0m[38;5;213m[mpeg @ 0x41e8e076cd90] [0m[48;5;0m[38;5;196mbuffer underflow st=0 bufi=455 size=553
[0mpts:270000 pts_time:3 dts:266400 dts_time:2.96 duration:0 duration_time:0 stream_index:0
[48;5;0m[38;5;213m[mpeg @ 0x41e8e076cd90] [0m[48;5;0m[38;5;196mbuffer underflow st=0 bufi=1934 size=17826
[0m[48;5;0m[38;5;213m[mpeg @ 0x41e8e076cd90] [0m[48;5;0m[38;5;196mbuffer underflow st=0 bufi=3975 size=17826
[0m[48;5;0m[38;5;213m[mpeg @ 0x41e8e076cd90] [0m[48;5;0m[38;5;196mbuffer underflow st=0 bufi=6016 size=17826
[0m[48;5;0m[38;5;213m[mpeg @ 0x41e8e076cd90] [0m[48;5;0m[38;5;196mbuffer underflow st=0 bufi=8057 size=17826
[0m[48;5;0m[38;5;213m[mpeg @ 0x41e8e076cd90] [0m[48;5;0m[38;5;196mbuffer underflow st=0 bufi=10098 size=17826
[0m[48;5;0m[38;5;213m[mpeg @ 0x41e8e076cd90] [0m[48;5;0m[38;5;196mbuffer underflow st=0 bufi=12139 size=17826
[0m[48;5;0m[38;5;213m[mpeg @ 0x41e8e076cd90] [0m[48;5;0m[38;5;196mbuffer underflow st=0 bufi=14180 size=17826
[0m[48;5;0m[38;5;213m[mpeg @ 0x41e8e076cd90] [0m[48;5;0m[38;5;196mbuffer underflow st=0 bufi=16221 size=17826
[0mpts:273600 pts_time:3.04 dts:270000 dts_time:3 duration:0 duration_time:0 stream_index:0
[48;5;0m[38;5;213m[mpeg @ 0x41e8e076cd90] [0m[48;5;0m[38;5;196mbuffer underflow st=0 bufi=427 size=855
[0mpts:277200 pts_time:3.08 dts:273600 dts_time:3.04 duration:0 duration_time:0 stream_index:0
pts:280800 pts_time:3.12 dts:277200 dts_time:3.08 duration:0 duration_time:0 stream_index:0
pts:284400 pts_time:3.16 dts:280800 dts_time:3.12 duration:0 duration_time:0 stream_index:0
[48;5;0m[38;5;213m[mpeg @ 0x41e8e076cd90] [0m[48;5;0m[38;5;196mbuffer underflow st=0 bufi=668 size=1649
[0mpts:288000 pts_time:3.2 dts:284400 dts_time:3.16 duration:0 duration_time:0 stream_index:0
pts:291600 pts_time:3.24 dts:288000 dts_time:3.2 duration:0 duration_time:0 stream_index:0
[48;5;0m[38;5;213m[mpeg @ 0x41e8e076cd90] [0m[48;5;0m[38;5;196mbuffer underflow st=0 bufi=867 size=2189
[0mpts:295200 pts_time:3.28 dts:291600 dts_time:3.24 duration:0 duration_time:0 stream_index:0
pts:298800 pts_time:3.32 dts:295200 dts_time:3.28 duration:0 duration_time:0 stream_index:0
[48;5;0m[38;5;213m[mpeg @ 0x41e8e076cd90] [0m[48;5;0m[38;5;196mbuffer underflow st=0 bufi=146 size=4503
[0m[48;5;0m[38;5;213m[mpeg @ 0x41e8e076cd90] [0m[48;5;0m[38;5;196mbuffer underflow st=0 bufi=2187 size=4503
[0m[48;5;0m[38;5;213m[mpeg @ 0x41e8e076cd90] [0m[48;5;0m[38;5;196mbuffer underflow st=0 bufi=4228 size=4503
[0mpts:302400 pts_time:3.36 dts:298800 dts_time:3.32 duration:0 duration_time:0 stream_index:0
pts:306000 pts_time:3.4 dts:302400 dts_time:3.36 duration:0 duration_time:0 stream_index:0
pts:309600 pts_time:3.44 dts:306000 dts_time:3.4 duration:0 duration_time:0 stream_index:0
pts:313200 pts_time:3.48 dts:309600 dts_time:3.44 duration:0 duration_time:0 stream_index:0
[48;5;0m[38;5;213m[mpeg @ 0x41e8e076cd90] [0m[48;5;0m[38;5;196mbuffer underflow st=0 bufi=410 size=23516
[0m[48;5;0m[38;5;213m[mpeg @ 0x41e8e076cd90] [0m[48;5;0m[38;5;196mbuffer underflow st=0 bufi=2451 size=23516
[0m[48;5;0m[38;5;213m[mpeg @ 0x41e8e076cd90] [0m[48;5;0m[38;5;196mbuffer underflow st=0 bufi=4492 size=23516
[0m[48;5;0m[38;5;213m[mpeg @ 0x41e8e076cd90] [0m[48;5;0m[38;5;196mbuffer underflow st=0 bufi=6533 size=23516
[0m[48;5;0m[38;5;213m[mpeg @ 0x41e8e076cd90] [0m[48;5;0m[38;5;196mbuffer underflow st=0 bufi=8574 size=23516
[0m[48;5;0m[38;5;213m[mpeg @ 0x41e8e076cd90] [0m[48;5;0m[38;5;196mbuffer underflow st=0 bufi=10615 size=23516
[0m[48;5;0m[38;5;213m[mpeg @ 0x41e8e076cd90] [0m[48;5;0m[38;5;196mbuffer underflow st=0 bufi=12656 size=23516
[0m[48;5;0m[38;5;213m[mpeg @ 0x41e8e076cd90] [0m[48;5;0m[38;5;196mbuffer underflow st=0 bufi=14697 size=23516
[0m[48;5;0m[38;5;213m[mpeg @ 0x41e8e076cd90] [0m[48;5;0m[38;5;196mbuffer underflow st=0 bufi=16738 size=23516
[0m[48;5;0m[38;5;213m[mpeg @ 0x41e8e076cd90] [0m[48;5;0m[38;5;196mbuffer underflow st=0 bufi=18779 size=23516
[0m[48;5;0m[38;5;213m[mpeg @ 0x41e8e076cd90] [0m[48;5;0m[38;5;196mbuffer underflow st=0 bufi=20820 size=23516
[0m[48;5;0m[38;5;213m[mpeg @ 0x41e8e076cd90] [0m[48;5;0m[38;5;196mbuffer underflow st=0 bufi=22861 size=23516
[0mpts:316800 pts_time:3.52 dts:313200 dts_time:3.48 duration:0 duration_time:0 stream_index:0
[48;5;0m[38;5;213m[mpeg @ 0x41e8e076cd90] [0m[48;5;0m[38;5;196mbuffer underflow st=0 bufi=1377 size=1647
[0mpts:320400 pts_time:3.56 dts:316800 dts_time:3.52 duration:0 duration_time:0 stream_index:0
pts:324000 pts_time:3.6 dts:320400 dts_time:3.56 duration:0 duration_time:0 stream_index:0
pts:327600 pts_time:3.64 dts:324000 dts_time:3.6 duration:0 duration_time:0 stream_index:0
pts:331200 pts_time:3.68 dts:327600 dts_time:3.64 duration:0 duration_time:0 stream_index:0
[48;5;0m[38;5;213m[mpeg @ 0x41e8e076cd90] [0m[48;5;0m[38;5;196mbuffer underflow st=0 bufi=230 size=421
[0mpts:334800 pts_time:3.72 dts:331200 dts_time:3.68 duration:0 duration_time:0 stream_index:0
pts:338400 pts_time:3.76 dts:334800 dts_time:3.72 duration:0 duration_time:0 stream_index:0
[48;5;0m[38;5;213m[mpeg @ 0x41e8e076cd90] [0m[48;5;0m[38;5;196mbuffer underflow st=0 bufi=1470 size=3383
[0mpts:342000 pts_time:3.8 dts:338400 dts_time:3.76 duration:0 duration_time:0 stream_index:0
[48;5;0m[38;5;213m[mpeg @ 0x41e8e076cd90] [0m[48;5;0m[38;5;196mbuffer underflow st=0 bufi=119 size=325
[0mpts:345600 pts_time:3.84 dts:342000 dts_time:3.8 duration:0 duration_time:0 stream_index:0
pts:349200 pts_time:3.88 dts:345600 dts_time:3.84 duration:0 duration_time:0 stream_index:0
pts:352800 pts_time:3.92 dts:349200 dts_time:3.88 duration:0 duration_time:0 stream_index:0
[48;5;0m[38;5;213m[mpeg @ 0x41e8e076cd90] [0m[48;5;0m[38;5;196mbuffer underflow st=0 bufi=1636 size=1832
[0mpts:356400 pts_time:3.96 dts:352800 dts_time:3.92 duration:0 duration_time:0 stream_index:0
[48;5;0m[38;5;213m[mpeg @ 0x41e8e076cd90] [0m[48;5;0m[38;5;196mbuffer underflow st=0 bufi=1836 size=28661
[0m[48;5;0m[38;5;213m[mpeg @ 0x41e8e076cd90] [0m[48;5;0m[38;5;196mbuffer underflow st=0 bufi=3877 size=28661
[0m[48;5;0m[38;5;213m[mpeg @ 0x41e8e076cd90] [0m[48;5;0m[38;5;196mbuffer underflow st=0 bufi=5918 size=28661
[0m[48;5;0m[38;5;213m[mpeg @ 0x41e8e076cd90] [0m[48;5;0m[38;5;196mbuffer underflow st=0 bufi=7959 size=28661
[0m[48;5;0m[38;5;213m[mpeg @ 0x41e8e076cd90] [0m[48;5;0m[38;5;196mbuffer underflow st=0 bufi=10000 size=28661
[0m[48;5;0m[38;5;213m[mpeg @ 0x41e8e076cd90] [0m[48;5;0m[38;5;196mbuffer underflow st=0 bufi=12041 size=28661
[0m[48;5;0m[38;5;213m[mpeg @ 0x41e8e076cd90] [0m[48;5;0m[38;5;196mbuffer underflow st=0 bufi=14082 size=28661
[0m[48;5;0m[38;5;213m[mpeg @ 0x41e8e076cd90] [0m[48;5;0m[38;5;196mbuffer underflow st=0 bufi=16123 size=28661
[0m[48;5;0m[38;5;213m[mpeg @ 0x41e8e076cd90] [0m[48;5;0m[38;5;196mbuffer underflow st=0 bufi=18164 size=28661
[0m[48;5;0m[38;5;213m[mpeg @ 0x41e8e076cd90] [0m[48;5;0m[38;5;196mbuffer underflow st=0 bufi=20205 size=28661
[0m[48;5;0m[38;5;213m[mpeg @ 0x41e8e076cd90] [0m[48;5;0m[38;5;196mbuffer underflow st=0 bufi=22246 size=28661
[0m[48;5;0m[38;5;213m[mpeg @ 0x41e8e076cd90] [0m[48;5;0m[38;5;196mbuffer underflow st=0 bufi=24287 size=28661
[0m[48;5;0m[38;5;213m[mpeg @ 0x41e8e076cd90] [0m[48;5;0m[38;5;196mbuffer underflow st=0 bufi=26328 size=28661
[0m[48;5;0m[38;5;213m[mpeg @ 0x41e8e076cd90] [0m[48;5;0m[38;5;196mbuffer underflow st=0 bufi=28369 size=28661
[0mpts:360000 pts_time:4 dts:356400 dts_time:3.96 duration:0 duration_time:0 stream_index:0
[48;5;0m[38;5;213m[mpeg @ 0x41e8e076cd90] [0m[48;5;0m[38;5;196mbuffer underflow st=0 bufi=1740 size=2299
[0mpts:363600 pts_time:4.04 dts:360000 dts_time:4 duration:0 duration_time:0 stream_index:0
[48;5;0m[38;5;213m[mpeg @ 0x41e8e076cd90] [0m[48;5;0m[38;5;196mbuffer underflow st=0 bufi=1473 size=27449
[0m[48;5;0m[38;5;213m[mpeg @ 0x41e8e076cd90] [0m[48;5;0m[38;5;196mbuffer underflow st=0 bufi=3514 size=27449
[0m[48;5;0m[38;5;213m[mpeg @ 0x41e8e076cd90] [0m[48;5;0m[38;5;196mbuffer underflow st=0 bufi=5555 size=27449
[0m[48;5;0m[38;5;213m[mpeg @ 0x41e8e076cd90] [0m[48;5;0m[38;5;196mbuffer underflow st=0 bufi=7596 size=27449
[0m[48;5;0m[38;5;213m[mpeg @ 0x41e8e076cd90] [0m[48;5;0m[38;5;196mbuffer underflow st=0 bufi=9637 size=27449
[0m[48;5;0m[38;5;213m[mpeg @ 0x41e8e076cd90] [0m[48;5;0m[38;5;196mbuffer underflow st=0 bufi=11678 size=27449
[0m[48;5;0m[38;5;213m[mpeg @ 0x41e8e076cd90] [0m[48;5;0m[38;5;196mbuffer underflow st=0 bufi=13719 size=27449
[0m[48;5;0m[38;5;213m[mpeg @ 0x41e8e076cd90] [0m[48;5;0m[38;5;196mbuffer underflow st=0 bufi=15760 size=27449
[0m[48;5;0m[38;5;213m[mpeg @ 0x41e8e076cd90] [0m[48;5;0m[38;5;196mbuffer underflow st=0 bufi=17801 size=27449
[0m[48;5;0m[38;5;213m[mpeg @ 0x41e8e076cd90] [0m[48;5;0m[38;5;196mbuffer underflow st=0 bufi=19842 size=27449
[0m[48;5;0m[38;5;213m[mpeg @ 0x41e8e076cd90] [0m[48;5;0m[38;5;196mbuffer underflow st=0 bufi=21883 size=27449
[0m[48;5;0m[38;5;213m[mpeg @ 0x41e8e076cd90] [0m[48;5;0m[38;5;196mbuffer underflow st=0 bufi=23924 size=27449
[0m[48;5;0m[38;5;213m[mpeg @ 0x41e8e076cd90] [0m[48;5;0m[38;5;196mbuffer underflow st=0 bufi=25965 size=27449
[0mpts:367200 pts_time:4.08 dts:363600 dts_time:4.04 duration:0 duration_time:0 stream_index:0
[48;5;0m[38;5;213m[mpeg @ 0x41e8e076cd90] [0m[48;5;0m[38;5;196mbuffer underflow st=0 bufi=548 size=5992
[0m[48;5;0m[38;5;213m[mpeg @ 0x41e8e076cd90] [0m[48;5;0m[38;5;196mbuffer underflow st=0 bufi=2589 size=5992
[0m[48;5;0m[38;5;213m[mpeg @ 0x41e8e076cd90] [0m[48;5;0m[38;5;196mbuffer underflow st=0 bufi=4618 size=5992
[0mpts:370800 pts_time:4.12 dts:367200 dts_time:4.08 duration:0 duration_time:0 stream_index:0
[48;5;0m[38;5;213m[mpeg @ 0x41e8e076cd90] [0m[48;5;0m[38;5;196mbuffer underflow st=0 bufi=658 size=4391
[0m[48;5;0m[38;5;213m[mpeg @ 0x41e8e076cd90] [0m[48;5;0m[38;5;196mbuffer underflow st=0 bufi=2699 size=4391
[0mpts:374400 pts_time:4.16 dts:370800 dts_time:4.12 duration:0 duration_time:0 stream_index:0
[48;5;0m[38;5;213m[mpeg @ 0x41e8e076cd90] [0m[48;5;0m[38;5;196mbuffer underflow st=0 bufi=340 size=3214
[0m[48;5;0m[38;5;213m[mpeg @ 0x41e8e076cd90] [0m[48;5;0m[38;5;196mbuffer underflow st=0 bufi=2381 size=3214
[0mpts:378000 pts_time:4.2 dts:374400 dts_time:4.16 duration:0 duration_time:0 stream_index:0
[48;5;0m[38;5;213m[mpeg @ 0x41e8e076cd90] [0m[48;5;0m[38;5;196mbuffer underflow st=0 bufi=1199 size=3484
[0m[48;5;0m[38;5;213m[mpeg @ 0x41e8e076cd90] [0m[48;5;0m[38;5;196mbuffer underflow st=0 bufi=3240 size=3484
[0mpts:381600 pts_time:4.24 dts:378000 dts_time:4.2 duration:0 duration_time:0 stream_index:0
[48;5;0m[38;5;213m[mpeg @ 0x41e8e076cd90] [0m[48;5;0m[38;5;196mbuffer underflow st=0 bufi=1788 size=3817
[0mpts:385200 pts_time:4.28 dts:381600 dts_time:4.24 duration:0 duration_time:0 stream_index:0
[48;5;0m[38;5;213m[mpeg @ 0x41e8e076cd90] [0m[48;5;0m[38;5;196mbuffer underflow st=0 bufi=3 size=2109
[0m[48;5;0m[38;5;213m[mpeg @ 0x41e8e076cd90] [0m[48;5;0m[38;5;196mbuffer underflow st=0 bufi=2044 size=2109
[0mpts:388800 pts_time:4.32 dts:385200 dts_time:4.28 duration:0 duration_time:0 stream_index:0
[48;5;0m[38;5;213m[mpeg @ 0x41e8e076cd90] [0m[48;5;0m[38;5;196mbuffer underflow st=0 bufi=1967 size=2905
[0mpts:392400 pts_time:4.36 dts:388800 dts_time:4.32 duration:0 duration_time:0 stream_index:0
[48;5;0m[38;5;213m[mpeg @ 0x41e8e076cd90] [0m[48;5;0m[38;5;196mbuffer underflow st=0 bufi=1094 size=3805
[0m[48;5;0m[38;5;213m[mpeg @ 0x41e8e076cd90] [0m[48;5;0m[38;5;196mbuffer underflow st=0 bufi=3135 size=3805
[0mpts:396000 pts_time:4.4 dts:392400 dts_time:4.36 duration:0 duration_time:0 stream_index:0
[48;5;0m[38;5;213m[mpeg @ 0x41e8e076cd90] [0m[48;5;0m[38;5;196mbuffer underflow st=0 bufi=1362 size=2082
[0mpts:399600 pts_time:4.44 dts:396000 dts_time:4.4 duration:0 duration_time:0 stream_index:0
[48;5;0m[38;5;213m[mpeg @ 0x41e8e076cd90] [0m[48;5;0m[38;5;196mbuffer underflow st=0 bufi=1312 size=12869
[0m[48;5;0m[38;5;213m[mpeg @ 0x41e8e076cd90] [0m[48;5;0m[38;5;196mbuffer underflow st=0 bufi=3353 size=12869
[0m[48;5;0m[38;5;213m[mpeg @ 0x41e8e076cd90] [0m[48;5;0m[38;5;196mbuffer underflow st=0 bufi=5394 size=12869
[0m[48;5;0m[38;5;213m[mpeg @ 0x41e8e076cd90] [0m[48;5;0m[38;5;196mbuffer underflow st=0 bufi=7435 size=12869
[0m[48;5;0m[38;5;213m[mpeg @ 0x41e8e076cd90] [0m[48;5;0m[38;5;196mbuffer underflow st=0 bufi=9476 size=12869
[0m[48;5;0m[38;5;213m[mpeg @ 0x41e8e076cd90] [0m[48;5;0m[38;5;196mbuffer underflow st=0 bufi=11517 size=12869
[0mpts:403200 pts_time:4.48 dts:399600 dts_time:4.44 duration:0 duration_time:0 stream_index:0
[48;5;0m[38;5;213m[mpeg @ 0x41e8e076cd90] [0m[48;5;0m[38;5;196mbuffer underflow st=0 bufi=680 size=2219
[0mpts:406800 pts_time:4.52 dts:403200 dts_time:4.48 duration:0 duration_time:0 stream_index:0
[48;5;0m[38;5;213m[mpeg @ 0x41e8e076cd90] [0m[48;5;0m[38;5;196mbuffer underflow st=0 bufi=493 size=2095
[0mpts:410400 pts_time:4.56 dts:406800 dts_time:4.52 duration:0 duration_time:0 stream_index:0
[48;5;0m[38;5;213m[mpeg @ 0x41e8e076cd90] [0m[48;5;0m[38;5;196mbuffer underflow st=0 bufi=430 size=3592
[0m[48;5;0m[38;5;213m[mpeg @ 0x41e8e076cd90] [0m[48;5;0m[38;5;196mbuffer underflow st=0 bufi=2471 size=3592
[0mpts:414000 pts_time:4.6 dts:410400 dts_time:4.56 duration:0 duration_time:0 stream_index:0
[48;5;0m[38;5;213m[mpeg @ 0x41e8e076cd90] [0m[48;5;0m[38;5;196mbuffer underflow st=0 bufi=911 size=2138
[0mpts:417600 pts_time:4.64 dts:414000 dts_time:4.6 duration:0 duration_time:0 stream_index:0
[48;5;0m[38;5;213m[mpeg @ 0x41e8e076cd90] [0m[48;5;0m[38;5;196mbuffer underflow st=0 bufi=805 size=2257
[0mpts:421200 pts_time:4.68 dts:417600 dts_time:4.64 duration:0 duration_time:0 stream_index:0
[48;5;0m[38;5;213m[mpeg @ 0x41e8e076cd90] [0m[48;5;0m[38;5;196mbuffer underflow st=0 bufi=580 size=3716
[0m[48;5;0m[38;5;213m[mpeg @ 0x41e8e076cd90] [0m[48;5;0m[38;5;196mbuffer underflow st=0 bufi=2621 size=3716
[0mpts:424800 pts_time:4.72 dts:421200 dts_time:4.68 duration:0 duration_time:0 stream_index:0
[48;5;0m[38;5;213m[mpeg @ 0x41e8e076cd90] [0m[48;5;0m[38;5;196mbuffer underflow st=0 bufi=937 size=1861
[0mpts:428400 pts_time:4.76 dts:424800 dts_time:4.72 duration:0 duration_time:0 stream_index:0
[48;5;0m[38;5;213m[mpeg @ 0x41e8e076cd90] [0m[48;5;0m[38;5;196mbuffer underflow st=0 bufi=1108 size=3513
[0m[48;5;0m[38;5;213m[mpeg @ 0x41e8e076cd90] [0m[48;5;0m[38;5;196mbuffer underflow st=0 bufi=3149 size=3513
[0mpts:432000 pts_time:4.8 dts:428400 dts_time:4.76 duration:0 duration_time:0 stream_index:0
pts:435600 pts_time:4.84 dts:432000 dts_time:4.8 duration:0 duration_time:0 stream_index:0
[48;5;0m[38;5;213m[mpeg @ 0x41e8e076cd90] [0m[48;5;0m[38;5;196mbuffer underflow st=0 bufi=45 size=2199
[0m[48;5;0m[38;5;213m[mpeg @ 0x41e8e076cd90] [0m[48;5;0m[38;5;196mbuffer underflow st=0 bufi=2086 size=2199
[0mpts:439200 pts_time:4.88 dts:435600 dts_time:4.84 duration:0 duration_time:0 stream_index:0
[48;5;0m[38;5;213m[mpeg @ 0x41e8e076cd90] [0m[48;5;0m[38;5;196mbuffer underflow st=0 bufi=1919 size=4267
[0m[48;5;0m[38;5;213m[mpeg @ 0x41e8e076cd90] [0m[48;5;0m[38;5;196mbuffer underflow st=0 bufi=3960 size=4267
[0mpts:442800 pts_time:4.92 dts:439200 dts_time:4.88 duration:0 duration_time:0 stream_index:0
[48;5;0m[38;5;213m[mpeg @ 0x41e8e076cd90] [0m[48;5;0m[38;5;196mbuffer underflow st=0 bufi=1725 size=10782
[0m[48;5;0m[38;5;213m[mpeg @ 0x41e8e076cd90] [0m[48;5;0m[38;5;196mbuffer underflow st=0 bufi=3766 size=10782
[0m[48;5;0m[38;5;213m[mpeg @ 0x41e8e076cd90] [0m[48;5;0m[38;5;196mbuffer underflow st=0 bufi=5807 size=10782
[0m[48;5;0m[38;5;213m[mpeg @ 0x41e8e076cd90] [0m[48;5;0m[38;5;196mbuffer underflow st=0 bufi=7848 size=10782
[0m[48;5;0m[38;5;213m[mpeg @ 0x41e8e076cd90] [0m[48;5;0m[38;5;196mbuffer underflow st=0 bufi=9889 size=10782
[0mpts:446400 pts_time:4.96 dts:442800 dts_time:4.92 duration:0 duration_time:0 stream_index:0
[48;5;0m[38;5;213m[mpeg @ 0x41e8e076cd90] [0m[48;5;0m[38;5;196mbuffer underflow st=0 bufi=1139 size=1697
[0mpts:450000 pts_time:5 dts:446400 dts_time:4.96 duration:0 duration_time:0 stream_index:0
[48;5;0m[38;5;213m[mpeg @ 0x41e8e076cd90] [0m[48;5;0m[38;5;196mbuffer underflow st=0 bufi=1474 size=2240
[0mpts:453600 pts_time:5.04 dts:450000 dts_time:5 duration:0 duration_time:0 stream_index:0
[48;5;0m[38;5;213m[mpeg @ 0x41e8e076cd90] [0m[48;5;0m[38;5;196mbuffer underflow st=0 bufi=1266 size=3227
[0mpts:457200 pts_time:5.08 dts:453600 dts_time:5.04 duration:0 duration_time:0 stream_index:0
[48;5;0m[38;5;213m[mpeg @ 0x41e8e076cd90] [0m[48;5;0m[38;5;196mbuffer underflow st=0 bufi=71 size=2028
[0mpts:460800 pts_time:5.12 dts:457200 dts_time:5.08 duration:0 duration_time:0 stream_index:0
[48;5;0m[38;5;213m[mpeg @ 0x41e8e076cd90] [0m[48;5;0m[38;5;196mbuffer underflow st=0 bufi=75 size=1580
[0mpts:464400 pts_time:5.16 dts:460800 dts_time:5.12 duration:0 duration_time:0 stream_index:0
[48;5;0m[38;5;213m[mpeg @ 0x41e8e076cd90] [0m[48;5;0m[38;5;196mbuffer underflow st=0 bufi=527 size=3581
[0m[48;5;0m[38;5;213m[mpeg @ 0x41e8e076cd90] [0m[48;5;0m[38;5;196mbuffer underflow st=0 bufi=2568 size=3581
[0mpts:468000 pts_time:5.2 dts:464400 dts_time:5.16 duration:0 duration_time:0 stream_index:0
[48;5;0m[38;5;213m[mpeg @ 0x41e8e076cd90] [0m[48;5;0m[38;5;196mbuffer underflow st=0 bufi=1019 size=3493
[0m[48;5;0m[38;5;213m[mpeg @ 0x41e8e076cd90] [0m[48;5;0m[38;5;196mbuffer underflow st=0 bufi=3060 size=3493
[0mpts:471600 pts_time:5.24 dts:468000 dts_time:5.2 duration:0 duration_time:0 stream_index:0
[48;5;0m[38;5;213m[mpeg @ 0x41e8e076cd90] [0m[48;5;0m[38;5;196mbuffer underflow st=0 bufi=1599 size=2195
[0mpts:475200 pts_time:5.28 dts:471600 dts_time:5.24 duration:0 duration_time:0 stream_index:0
[48;5;0m[38;5;213m[mpeg @ 0x41e8e076cd90] [0m[48;5;0m[38;5;196mbuffer underflow st=0 bufi=1436 size=2636
[0mpts:478800 pts_time:5.32 dts:475200 dts_time:5.28 duration:0 duration_time:0 stream_index:0
[48;5;0m[38;5;213m[mpeg @ 0x41e8e076cd90] [0m[48;5;0m[38;5;196mbuffer underflow st=0 bufi=832 size=3159
[0m[48;5;0m[38;5;213m[mpeg @ 0x41e8e076cd90] [0m[48;5;0m[38;5;196mbuffer underflow st=0 bufi=2846 size=3159
[0mpts:482400 pts_time:5.36 dts:478800 dts_time:5.32 duration:0 duration_time:0 stream_index:0
[48;5;0m[38;5;213m[mpeg @ 0x41e8e076cd90] [0m[48;5;0m[38;5;196mbuffer underflow st=0 bufi=1719 size=2218
[0mpts:486000 pts_time:5.4 dts:482400 dts_time:5.36 duration:0 duration_time:0 stream_index:0
[48;5;0m[38;5;213m[mpeg @ 0x41e8e076cd90] [0m[48;5;0m[38;5;196mbuffer underflow st=0 bufi=1533 size=10959
[0m[48;5;0m[38;5;213m[mpeg @ 0x41e8e076cd90] [0m[48;5;0m[38;5;196mbuffer underflow st=0 bufi=3574 size=10959
[0m[48;5;0m[38;5;213m[mpeg @ 0x41e8e076cd90] [0m[48;5;0m[38;5;196mbuffer underflow st=0 bufi=5615 size=10959
[0m[48;5;0m[38;5;213m[mpeg @ 0x41e8e076cd90] [0m[48;5;0m[38;5;196mbuffer underflow st=0 bufi=7656 size=10959
[0m[48;5;0m[38;5;213m[mpeg @ 0x41e8e076cd90] [0m[48;5;0m[38;5;196mbuffer underflow st=0 bufi=9697 size=10959
[0mpts:489600 pts_time:5.44 dts:486000 dts_time:5.4 duration:0 duration_time:0 stream_index:0
[48;5;0m[38;5;213m[mpeg @ 0x41e8e076cd90] [0m[48;5;0m[38;5;196mbuffer underflow st=0 bufi=770 size=2135
[0mpts:493200 pts_time:5.48 dts:489600 dts_time:5.44 duration:0 duration_time:0 stream_index:0
[48;5;0m[38;5;213m[mpeg @ 0x41e8e076cd90] [0m[48;5;0m[38;5;196mbuffer underflow st=0 bufi=667 size=2032
[0mpts:496800 pts_time:5.52 dts:493200 dts_time:5.48 duration:0 duration_time:0 stream_index:0
[48;5;0m[38;5;213m[mpeg @ 0x41e8e076cd90] [0m[48;5;0m[38;5;196mbuffer underflow st=0 bufi=667 size=3411
[0m[48;5;0m[38;5;213m[mpeg @ 0x41e8e076cd90] [0m[48;5;0m[38;5;196mbuffer underflow st=0 bufi=2708 size=3411
[0mpts:500400 pts_time:5.56 dts:496800 dts_time:5.52 duration:0 duration_time:0 stream_index:0
[48;5;0m[38;5;213m[mpeg @ 0x41e8e076cd90] [0m[48;5;0m[38;5;196mbuffer underflow st=0 bufi=1329 size=2237
[0mpts:504000 pts_time:5.6 dts:500400 dts_time:5.56 duration:0 duration_time:0 stream_index:0
[48;5;0m[38;5;213m[mpeg @ 0x41e8e076cd90] [0m[48;5;0m[38;5;196mbuffer underflow st=0 bufi=1124 size=1926
[0mpts:507600 pts_time:5.64 dts:504000 dts_time:5.6 duration:0 duration_time:0 stream_index:0
[48;5;0m[38;5;213m[mpeg @ 0x41e8e076cd90] [0m[48;5;0m[38;5;196mbuffer underflow st=0 bufi=1230 size=3149
[0mpts:511200 pts_time:5.68 dts:507600 dts_time:5.64 duration:0 duration_time:0 stream_index:0
[48;5;0m[38;5;213m[mpeg @ 0x41e8e076cd90] [0m[48;5;0m[38;5;196mbuffer underflow st=0 bufi=113 size=2234
[0m[48;5;0m[38;5;213m[mpeg @ 0x41e8e076cd90] [0m[48;5;0m[38;5;196mbuffer underflow st=0 bufi=2154 size=2234
[0mpts:514800 pts_time:5.72 dts:511200 dts_time:5.68 duration:0 duration_time:0 stream_index:0
[48;5;0m[38;5;213m[mpeg @ 0x41e8e076cd90] [0m[48;5;0m[38;5;196mbuffer underflow st=0 bufi=1952 size=1974
[0mpts:518400 pts_time:5.76 dts:514800 dts_time:5.72 duration:0 duration_time:0 stream_index:0
pts:522000 pts_time:5.8 dts:518400 dts_time:5.76 duration:0 duration_time:0 stream_index:0
[48;5;0m[38;5;213m[mpeg @ 0x41e8e076cd90] [0m[48;5;0m[38;5;196mbuffer underflow st=0 bufi=429 size=2612
[0m[48;5;0m[38;5;213m[mpeg @ 0x41e8e076cd90] [0m[48;5;0m[38;5;196mbuffer underflow st=0 bufi=2470 size=2612
[0mpts:525600 pts_time:5.84 dts:522000 dts_time:5.8 duration:0 duration_time:0 stream_index:0
[48;5;0m[38;5;213m[mpeg @ 0x41e8e076cd90] [0m[48;5;0m[38;5;196mbuffer underflow st=0 bufi=1890 size=2139
[0mpts:529200 pts_time:5.88 dts:525600 dts_time:5.84 duration:0 duration_time:0 stream_index:0
[48;5;0m[38;5;213m[mpeg @ 0x41e8e076cd90] [0m[48;5;0m[38;5;196mbuffer underflow st=0 bufi=1783 size=9792
[0m[48;5;0m[38;5;213m[mpeg @ 0x41e8e076cd90] [0m[48;5;0m[38;5;196mbuffer underflow st=0 bufi=3824 size=9792
[0m[48;5;0m[38;5;213m[mpeg @ 0x41e8e076cd90] [0m[48;5;0m[38;5;196mbuffer underflow st=0 bufi=5865 size=9792
[0m[48;5;0m[38;5;213m[mpeg @ 0x41e8e076cd90] [0m[48;5;0m[38;5;196mbuffer underflow st=0 bufi=7906 size=9792
[0mpts:532800 pts_time:5.92 dts:529200 dts_time:5.88 duration:0 duration_time:0 stream_index:0
[48;5;0m[38;5;213m[mpeg @ 0x41e8e076cd90] [0m[48;5;0m[38;5;196mbuffer underflow st=0 bufi=146 size=1516
[0mpts:536400 pts_time:5.96 dts:532800 dts_time:5.92 duration:0 duration_time:0 stream_index:0
[48;5;0m[38;5;213m[mpeg @ 0x41e8e076cd90] [0m[48;5;0m[38;5;196mbuffer underflow st=0 bufi=662 size=1972
[0mpts:540000 pts_time:6 dts:536400 dts_time:5.96 duration:0 duration_time:0 stream_index:0
[48;5;0m[38;5;213m[mpeg @ 0x41e8e076cd90] [0m[48;5;0m[38;5;196mbuffer underflow st=0 bufi=722 size=3117
[0m[48;5;0m[38;5;213m[mpeg @ 0x41e8e076cd90] [0m[48;5;0m[38;5;196mbuffer underflow st=0 bufi=2763 size=3117
[0mpts:543600 pts_time:6.04 dts:540000 dts_time:6 duration:0 duration_time:0 stream_index:0
[48;5;0m[38;5;213m[mpeg @ 0x41e8e076cd90] [0m[48;5;0m[38;5;196mbuffer underflow st=0 bufi=1678 size=1961
[0mpts:547200 pts_time:6.08 dts:543600 dts_time:6.04 duration:0 duration_time:0 stream_index:0
pts:550800 pts_time:6.12 dts:547200 dts_time:6.08 duration:0 duration_time:0 stream_index:0
[48;5;0m[38;5;213m[mpeg @ 0x41e8e076cd90] [0m[48;5;0m[38;5;196mbuffer underflow st=0 bufi=245 size=2726
[0m[48;5;0m[38;5;213m[mpeg @ 0x41e8e076cd90] [0m[48;5;0m[38;5;196mbuffer underflow st=0 bufi=2286 size=2726
[0mpts:554400 pts_time:6.16 dts:550800 dts_time:6.12 duration:0 duration_time:0 stream_index:0
[48;5;0m[38;5;213m[mpeg @ 0x41e8e076cd90] [0m[48;5;0m[38;5;196mbuffer underflow st=0 bufi=1592 size=2688
[0mpts:558000 pts_time:6.2 dts:554400 dts_time:6.16 duration:0 duration_time:0 stream_index:0
[48;5;0m[38;5;213m[mpeg @ 0x41e8e076cd90] [0m[48;5;0m[38;5;196mbuffer underflow st=0 bufi=936 size=1690
[0mpts:561600 pts_time:6.24 dts:558000 dts_time:6.2 duration:0 duration_time:0 stream_index:0
[48;5;0m[38;5;213m[mpeg @ 0x41e8e076cd90] [0m[48;5;0m[38;5;196mbuffer underflow st=0 bufi=1278 size=2560
[0mpts:565200 pts_time:6.28 dts:561600 dts_time:6.24 duration:0 duration_time:0 stream_index:0
[48;5;0m[38;5;213m[mpeg @ 0x41e8e076cd90] [0m[48;5;0m[38;5;196mbuffer underflow st=0 bufi=750 size=1946
[0mpts:568800 pts_time:6.32 dts:565200 dts_time:6.28 duration:0 duration_time:0 stream_index:0
[48;5;0m[38;5;213m[mpeg @ 0x41e8e076cd90] [0m[48;5;0m[38;5;196mbuffer underflow st=0 bufi=836 size=1816
[0mpts:572400 pts_time:6.36 dts:568800 dts_time:6.32 duration:0 duration_time:0 stream_index:0
[48;5;0m[38;5;213m[mpeg @ 0x41e8e076cd90] [0m[48;5;0m[38;5;196mbuffer underflow st=0 bufi=1052 size=10572
[0m[48;5;0m[38;5;213m[mpeg @ 0x41e8e076cd90] [0m[48;5;0m[38;5;196mbuffer underflow st=0 bufi=3093 size=10572
[0m[48;5;0m[38;5;213m[mpeg @ 0x41e8e076cd90] [0m[48;5;0m[38;5;196mbuffer underflow st=0 bufi=5134 size=10572
[0m[48;5;0m[38;5;213m[mpeg @ 0x41e8e076cd90] [0m[48;5;0m[38;5;196mbuffer underflow st=0 bufi=7175 size=10572
[0m[48;5;0m[38;5;213m[mpeg @ 0x41e8e076cd90] [0m[48;5;0m[38;5;196mbuffer underflow st=0 bufi=9216 size=10572
[0mpts:576000 pts_time:6.4 dts:572400 dts_time:6.36 duration:0 duration_time:0 stream_index:0
[48;5;0m[38;5;213m[mpeg @ 0x41e8e076cd90] [0m[48;5;0m[38;5;196mbuffer underflow st=0 bufi=676 size=1971
[0mpts:579600 pts_time:6.44 dts:576000 dts_time:6.4 duration:0 duration_time:0 stream_index:0
[48;5;0m[38;5;213m[mpeg @ 0x41e8e076cd90] [0m[48;5;0m[38;5;196mbuffer underflow st=0 bufi=737 size=1845
[0mpts:583200 pts_time:6.48 dts:579600 dts_time:6.44 duration:0 duration_time:0 stream_index:0
[48;5;0m[38;5;213m[mpeg @ 0x41e8e076cd90] [0m[48;5;0m[38;5;196mbuffer underflow st=0 bufi=924 size=3001
[0m[48;5;0m[38;5;213m[mpeg @ 0x41e8e076cd90] [0m[48;5;0m[38;5;196mbuffer underflow st=0 bufi=2965 size=3001
[0mpts:586800 pts_time:6.52 dts:583200 dts_time:6.48 duration:0 duration_time:0 stream_index:0
[48;5;0m[38;5;213m[mpeg @ 0x41e8e076cd90] [0m[48;5;0m[38;5;196mbuffer underflow st=0 bufi=1996 size=2255
[0mpts:590400 pts_time:6.56 dts:586800 dts_time:6.52 duration:0 duration_time:0 stream_index:0
pts:594000 pts_time:6.6 dts:590400 dts_time:6.56 duration:0 duration_time:0 stream_index:0
[48;5;0m[38;5;213m[mpeg @ 0x41e8e076cd90] [0m[48;5;0m[38;5;196mbuffer underflow st=0 bufi=140 size=3029
[0m[48;5;0m[38;5;213m[mpeg @ 0x41e8e076cd90] [0m[48;5;0m[38;5;196mbuffer underflow st=0 bufi=2181 size=3029
[0mpts:597600 pts_time:6.64 dts:594000 dts_time:6.6 duration:0 duration_time:0 stream_index:0
[48;5;0m[38;5;213m[mpeg @ 0x41e8e076cd90] [0m[48;5;0m[38;5;196mbuffer underflow st=0 bufi=1184 size=1718
[0mpts:601200 pts_time:6.68 dts:597600 dts_time:6.64 duration:0 duration_time:0 stream_index:0
[48;5;0m[38;5;213m[mpeg @ 0x41e8e076cd90] [0m[48;5;0m[38;5;196mbuffer underflow st=0 bufi=1498 size=2918
[0mpts:604800 pts_time:6.72 dts:601200 dts_time:6.68 duration:0 duration_time:0 stream_index:0
[48;5;0m[38;5;213m[mpeg @ 0x41e8e076cd90] [0m[48;5;0m[38;5;196mbuffer underflow st=0 bufi=612 size=2556
[0mpts:608400 pts_time:6.76 dts:604800 dts_time:6.72 duration:0 duration_time:0 stream_index:0
[48;5;0m[38;5;213m[mpeg @ 0x41e8e076cd90] [0m[48;5;0m[38;5;196mbuffer underflow st=0 bufi=88 size=1999
[0mpts:612000 pts_time:6.8 dts:608400 dts_time:6.76 duration:0 duration_time:0 stream_index:0
[48;5;0m[38;5;213m[mpeg @ 0x41e8e076cd90] [0m[48;5;0m[38;5;196mbuffer underflow st=0 bufi=109 size=2206
[0m[48;5;0m[38;5;213m[mpeg @ 0x41e8e076cd90] [0m[48;5;0m[38;5;196mbuffer underflow st=0 bufi=2150 size=2206
[0mpts:615600 pts_time:6.84 dts:612000 dts_time:6.8 duration:0 duration_time:0 stream_index:0
[48;5;0m[38;5;213m[mpeg @ 0x41e8e076cd90] [0m[48;5;0m[38;5;196mbuffer underflow st=0 bufi=1976 size=9795
[0m[48;5;0m[38;5;213m[mpeg @ 0x41e8e076cd90] [0m[48;5;0m[38;5;196mbuffer underflow st=0 bufi=4017 size=9795
[0m[48;5;0m[38;5;213m[mpeg @ 0x41e8e076cd90] [0m[48;5;0m[38;5;196mbuffer underflow st=0 bufi=6058 size=9795
[0m[48;5;0m[38;5;213m[mpeg @ 0x41e8e076cd90] [0m[48;5;0m[38;5;196mbuffer underflow st=0 bufi=8099 size=9795
[0mpts:619200 pts_time:6.88 dts:615600 dts_time:6.84 duration:0 duration_time:0 stream_index:0
[48;5;0m[38;5;213m[mpeg @ 0x41e8e076cd90] [0m[48;5;0m[38;5;196mbuffer underflow st=0 bufi=336 size=1542
[0mpts:622800 pts_time:6.92 dts:619200 dts_time:6.88 duration:0 duration_time:0 stream_index:0
[48;5;0m[38;5;213m[mpeg @ 0x41e8e076cd90] [0m[48;5;0m[38;5;196mbuffer underflow st=0 bufi=826 size=1972
[0mpts:626400 pts_time:6.96 dts:622800 dts_time:6.92 duration:0 duration_time:0 stream_index:0
[48;5;0m[38;5;213m[mpeg @ 0x41e8e076cd90] [0m[48;5;0m[38;5;196mbuffer underflow st=0 bufi=886 size=3113
[0m[48;5;0m[38;5;213m[mpeg @ 0x41e8e076cd90] [0m[48;5;0m[38;5;196mbuffer underflow st=0 bufi=2927 size=3113
[0mpts:630000 pts_time:7 dts:626400 dts_time:6.96 duration:0 duration_time:0 stream_index:0
[48;5;0m[38;5;213m[mpeg @ 0x41e8e076cd90] [0m[48;5;0m[38;5;196mbuffer underflow st=0 bufi=1846 size=1887
[0mpts:633600 pts_time:7.04 dts:630000 dts_time:7 duration:0 duration_time:0 stream_index:0
pts:637200 pts_time:7.08 dts:633600 dts_time:7.04 duration:0 duration_time:0 stream_index:0
[48;5;0m[38;5;213m[mpeg @ 0x41e8e076cd90] [0m[48;5;0m[38;5;196mbuffer underflow st=0 bufi=493 size=2749
[0m[48;5;0m[38;5;213m[mpeg @ 0x41e8e076cd90] [0m[48;5;0m[38;5;196mbuffer underflow st=0 bufi=2534 size=2749
[0mpts:640800 pts_time:7.12 dts:637200 dts_time:7.08 duration:0 duration_time:0 stream_index:0
[48;5;0m[38;5;213m[mpeg @ 0x41e8e076cd90] [0m[48;5;0m[38;5;196mbuffer underflow st=0 bufi=1817 size=2851
[0mpts:644400 pts_time:7.16 dts:640800 dts_time:7.12 duration:0 duration_time:0 stream_index:0
[48;5;0m[38;5;213m[mpeg @ 0x41e8e076cd90] [0m[48;5;0m[38;5;196mbuffer underflow st=0 bufi=998 size=1809
[0mpts:648000 pts_time:7.2 dts:644400 dts_time:7.16 duration:0 duration_time:0 stream_index:0
[48;5;0m[38;5;213m[mpeg @ 0x41e8e076cd90] [0m[48;5;0m[38;5;196mbuffer underflow st=0 bufi=1221 size=2216
[0mpts:651600 pts_time:7.24 dts:648000 dts_time:7.2 duration:0 duration_time:0 stream_index:0
[48;5;0m[38;5;213m[mpeg @ 0x41e8e076cd90] [0m[48;5;0m[38;5;196mbuffer underflow st=0 bufi=1037 size=3133
[0m[48;5;0m[38;5;213m[mpeg @ 0x41e8e076cd90] [0m[48;5;0m[38;5;196mbuffer underflow st=0 bufi=3078 size=3133
[0mpts:655200 pts_time:7.28 dts:651600 dts_time:7.24 duration:0 duration_time:0 stream_index:0
[48;5;0m[38;5;213m[mpeg @ 0x41e8e076cd90] [0m[48;5;0m[38;5;196mbuffer underflow st=0 bufi=1977 size=2044
[0mpts:658800 pts_time:7.32 dts:655200 dts_time:7.28 duration:0 duration_time:0 stream_index:0
[48;5;0m[38;5;213m[mpeg @ 0x41e8e076cd90] [0m[48;5;0m[38;5;196mbuffer underflow st=0 bufi=1965 size=11015
[0m[48;5;0m[38;5;213m[mpeg @ 0x41e8e076cd90] [0m[48;5;0m[38;5;196mbuffer underflow st=0 bufi=4006 size=11015
[0m[48;5;0m[38;5;213m[mpeg @ 0x41e8e076cd90] [0m[48;5;0m[38;5;196mbuffer underflow st=0 bufi=6047 size=11015
[0m[48;5;0m[38;5;213m[mpeg @ 0x41e8e076cd90] [0m[48;5;0m[38;5;196mbuffer underflow st=0 bufi=8088 size=11015
[0m[48;5;0m[38;5;213m[mpeg @ 0x41e8e076cd90] [0m[48;5;0m[38;5;196mbuffer underflow st=0 bufi=10129 size=11015
[0mpts:662400 pts_time:7.36 dts:658800 dts_time:7.32 duration:0 duration_time:0 stream_index:0
[48;5;0m[38;5;213m[mpeg @ 0x41e8e076cd90] [0m[48;5;0m[38;5;196mbuffer underflow st=0 bufi=1146 size=2157
[0mpts:666000 pts_time:7.4 dts:662400 dts_time:7.36 duration:0 duration_time:0 stream_index:0
[48;5;0m[38;5;213m[mpeg @ 0x41e8e076cd90] [0m[48;5;0m[38;5;196mbuffer underflow st=0 bufi=1021 size=2040
[0mpts:669600 pts_time:7.44 dts:666000 dts_time:7.4 duration:0 duration_time:0 stream_index:0
[48;5;0m[38;5;213m[mpeg @ 0x41e8e076cd90] [0m[48;5;0m[38;5;196mbuffer underflow st=0 bufi=1013 size=3399
[0m[48;5;0m[38;5;213m[mpeg @ 0x41e8e076cd90] [0m[48;5;0m[38;5;196mbuffer underflow st=0 bufi=3054 size=3399
[0mpts:673200 pts_time:7.48 dts:669600 dts_time:7.44 duration:0 duration_time:0 stream_index:0
[48;5;0m[38;5;213m[mpeg @ 0x41e8e076cd90] [0m[48;5;0m[38;5;196mbuffer underflow st=0 bufi=1687 size=2214
[0mpts:676800 pts_time:7.52 dts:673200 dts_time:7.48 duration:0 duration_time:0 stream_index:0
[48;5;0m[38;5;213m[mpeg @ 0x41e8e076cd90] [0m[48;5;0m[38;5;196mbuffer underflow st=0 bufi=1505 size=1924
[0mpts:680400 pts_time:7.56 dts:676800 dts_time:7.52 duration:0 duration_time:0 stream_index:0
[48;5;0m[38;5;213m[mpeg @ 0x41e8e076cd90] [0m[48;5;0m[38;5;196mbuffer underflow st=0 bufi=1613 size=3374
[0mpts:684000 pts_time:7.6 dts:680400 dts_time:7.56 duration:0 duration_time:0 stream_index:0
[48;5;0m[38;5;213m[mpeg @ 0x41e8e076cd90] [0m[48;5;0m[38;5;196mbuffer underflow st=0 bufi=271 size=2443
[0m[48;5;0m[38;5;213m[mpeg @ 0x41e8e076cd90] [0m[48;5;0m[38;5;196mbuffer underflow st=0 bufi=2312 size=2443
[0mpts:687600 pts_time:7.64 dts:684000 dts_time:7.6 duration:0 duration_time:0 stream_index:0
[48;5;0m[38;5;213m[mpeg @ 0x41e8e076cd90] [0m[48;5;0m[38;5;196mbuffer underflow st=0 bufi=1901 size=2712
[0mpts:691200 pts_time:7.68 dts:687600 dts_time:7.64 duration:0 duration_time:0 stream_index:0
[48;5;0m[38;5;213m[mpeg @ 0x41e8e076cd90] [0m[48;5;0m[38;5;196mbuffer underflow st=0 bufi=1221 size=2249
[0mpts:694800 pts_time:7.72 dts:691200 dts_time:7.68 duration:0 duration_time:0 stream_index:0
[48;5;0m[38;5;213m[mpeg @ 0x41e8e076cd90] [0m[48;5;0m[38;5;196mbuffer underflow st=0 bufi=1004 size=1522
[0mpts:698400 pts_time:7.76 dts:694800 dts_time:7.72 duration:0 duration_time:0 stream_index:0
[48;5;0m[38;5;213m[mpeg @ 0x41e8e076cd90] [0m[48;5;0m[38;5;196mbuffer underflow st=0 bufi=1514 size=1822
[0mpts:702000 pts_time:7.8 dts:698400 dts_time:7.76 duration:0 duration_time:0 stream_index:0
[48;5;0m[38;5;213m[mpeg @ 0x41e8e076cd90] [0m[48;5;0m[38;5;196mbuffer underflow st=0 bufi=1724 size=9502
[0m[48;5;0m[38;5;213m[mpeg @ 0x41e8e076cd90] [0m[48;5;0m[38;5;196mbuffer underflow st=0 bufi=3765 size=9502
[0m[48;5;0m[38;5;213m[mpeg @ 0x41e8e076cd90] [0m[48;5;0m[38;5;196mbuffer underflow st=0 bufi=5806 size=9502
[0m[48;5;0m[38;5;213m[mpeg @ 0x41e8e076cd90] [0m[48;5;0m[38;5;196mbuffer underflow st=0 bufi=7847 size=9502
[0mpts:705600 pts_time:7.84 dts:702000 dts_time:7.8 duration:0 duration_time:0 stream_index:0
[48;5;0m[38;5;213m[mpeg @ 0x41e8e076cd90] [0m[48;5;0m[38;5;196mbuffer underflow st=0 bufi=377 size=1261
[0mpts:709200 pts_time:7.88 dts:705600 dts_time:7.84 duration:0 duration_time:0 stream_index:0
[48;5;0m[38;5;213m[mpeg @ 0x41e8e076cd90] [0m[48;5;0m[38;5;196mbuffer underflow st=0 bufi=1148 size=1542
[0mpts:712800 pts_time:7.92 dts:709200 dts_time:7.88 duration:0 duration_time:0 stream_index:0
[48;5;0m[38;5;213m[mpeg @ 0x41e8e076cd90] [0m[48;5;0m[38;5;196mbuffer underflow st=0 bufi=1638 size=2682
[0mpts:716400 pts_time:7.96 dts:712800 dts_time:7.92 duration:0 duration_time:0 stream_index:0
[48;5;0m[38;5;213m[mpeg @ 0x41e8e076cd90] [0m[48;5;0m[38;5;196mbuffer underflow st=0 bufi=988 size=1480
[0mpts:720000 pts_time:8 dts:716400 dts_time:7.96 duration:0 duration_time:0 stream_index:0
pts:723600 pts_time:8.04 dts:720000 dts_time:8 duration:0 duration_time:0 stream_index:0
[48;5;0m[38;5;213m[mpeg @ 0x41e8e076cd90] [0m[48;5;0m[38;5;196mbuffer underflow st=0 bufi=245 size=2772
[0m[48;5;0m[38;5;213m[mpeg @ 0x41e8e076cd90] [0m[48;5;0m[38;5;196mbuffer underflow st=0 bufi=2286 size=2772
[0mpts:727200 pts_time:8.08 dts:723600 dts_time:8.04 duration:0 duration_time:0 stream_index:0
[48;5;0m[38;5;213m[mpeg @ 0x41e8e076cd90] [0m[48;5;0m[38;5;196mbuffer underflow st=0 bufi=1546 size=2761
[0mpts:730800 pts_time:8.12 dts:727200 dts_time:8.08 duration:0 duration_time:0 stream_index:0
[48;5;0m[38;5;213m[mpeg @ 0x41e8e076cd90] [0m[48;5;0m[38;5;196mbuffer underflow st=0 bufi=817 size=1898
[0mpts:734400 pts_time:8.16 dts:730800 dts_time:8.12 duration:0 duration_time:0 stream_index:0
[48;5;0m[38;5;213m[mpeg @ 0x41e8e076cd90] [0m[48;5;0m[38;5;196mbuffer underflow st=0 bufi=951 size=1974
[0mpts:738000 pts_time:8.2 dts:734400 dts_time:8.16 duration:0 duration_time:0 stream_index:0
[48;5;0m[38;5;213m[mpeg @ 0x41e8e076cd90] [0m[48;5;0m[38;5;196mbuffer underflow st=0 bufi=1009 size=2563
[0mpts:741600 pts_time:8.24 dts:738000 dts_time:8.2 duration:0 duration_time:0 stream_index:0
[48;5;0m[38;5;213m[mpeg @ 0x41e8e076cd90] [0m[48;5;0m[38;5;196mbuffer underflow st=0 bufi=478 size=1908
[0mpts:745200 pts_time:8.28 dts:741600 dts_time:8.24 duration:0 duration_time:0 stream_index:0
[48;5;0m[38;5;213m[mpeg @ 0x41e8e076cd90] [0m[48;5;0m[38;5;196mbuffer underflow st=0 bufi=590 size=10658
[0m[48;5;0m[38;5;213m[mpeg @ 0x41e8e076cd90] [0m[48;5;0m[38;5;196mbuffer underflow st=0 bufi=2631 size=10658
[0m[48;5;0m[38;5;213m[mpeg @ 0x41e8e076cd90] [0m[48;5;0m[38;5;196mbuffer underflow st=0 bufi=4672 size=10658
[0m[48;5;0m[38;5;213m[mpeg @ 0x41e8e076cd90] [0m[48;5;0m[38;5;196mbuffer underflow st=0 bufi=6713 size=10658
[0m[48;5;0m[38;5;213m[mpeg @ 0x41e8e076cd90] [0m[48;5;0m[38;5;196mbuffer underflow st=0 bufi=8754 size=10658
[0mpts:748800 pts_time:8.32 dts:745200 dts_time:8.28 duration:0 duration_time:0 stream_index:0
[48;5;0m[38;5;213m[mpeg @ 0x41e8e076cd90] [0m[48;5;0m[38;5;196mbuffer underflow st=0 bufi=128 size=1945
[0mpts:752400 pts_time:8.36 dts:748800 dts_time:8.32 duration:0 duration_time:0 stream_index:0
[48;5;0m[38;5;213m[mpeg @ 0x41e8e076cd90] [0m[48;5;0m[38;5;196mbuffer underflow st=0 bufi=215 size=1730
[0mpts:756000 pts_time:8.4 dts:752400 dts_time:8.36 duration:0 duration_time:0 stream_index:0
[48;5;0m[38;5;213m[mpeg @ 0x41e8e076cd90] [0m[48;5;0m[38;5;196mbuffer underflow st=0 bufi=517 size=2975
[0m[48;5;0m[38;5;213m[mpeg @ 0x41e8e076cd90] [0m[48;5;0m[38;5;196mbuffer underflow st=0 bufi=2558 size=2975
[0mpts:759600 pts_time:8.44 dts:756000 dts_time:8.4 duration:0 duration_time:0 stream_index:0
[48;5;0m[38;5;213m[mpeg @ 0x41e8e076cd90] [0m[48;5;0m[38;5;196mbuffer underflow st=0 bufi=1615 size=1771
[0mpts:763200 pts_time:8.48 dts:759600 dts_time:8.44 duration:0 duration_time:0 stream_index:0
pts:766800 pts_time:8.52 dts:763200 dts_time:8.48 duration:0 duration_time:0 stream_index:0
[48;5;0m[38;5;213m[mpeg @ 0x41e8e076cd90] [0m[48;5;0m[38;5;196mbuffer underflow st=0 bufi=217 size=2880
[0m[48;5;0m[38;5;213m[mpeg @ 0x41e8e076cd90] [0m[48;5;0m[38;5;196mbuffer underflow st=0 bufi=2258 size=2880
[0mpts:770400 pts_time:8.56 dts:766800 dts_time:8.52 duration:0 duration_time:0 stream_index:0
[48;5;0m[38;5;213m[mpeg @ 0x41e8e076cd90] [0m[48;5;0m[38;5;196mbuffer underflow st=0 bufi=1410 size=2621
[0mpts:774000 pts_time:8.6 dts:770400 dts_time:8.56 duration:0 duration_time:0 stream_index:0
[48;5;0m[38;5;213m[mpeg @ 0x41e8e076cd90] [0m[48;5;0m[38;5;196mbuffer underflow st=0 bufi=821 size=1974
[0mpts:777600 pts_time:8.64 dts:774000 dts_time:8.6 duration:0 duration_time:0 stream_index:0
[48;5;0m[38;5;213m[mpeg @ 0x41e8e076cd90] [0m[48;5;0m[38;5;196mbuffer underflow st=0 bufi=879 size=1587
[0mpts:781200 pts_time:8.68 dts:777600 dts_time:8.64 duration:0 duration_time:0 stream_index:0
[48;5;0m[38;5;213m[mpeg @ 0x41e8e076cd90] [0m[48;5;0m[38;5;196mbuffer underflow st=0 bufi=1324 size=1969
[0mpts:784800 pts_time:8.72 dts:781200 dts_time:8.68 duration:0 duration_time:0 stream_index:0
[48;5;0m[38;5;213m[mpeg @ 0x41e8e076cd90] [0m[48;5;0m[38;5;196mbuffer underflow st=0 bufi=1387 size=2534
[0mpts:788400 pts_time:8.76 dts:784800 dts_time:8.72 duration:0 duration_time:0 stream_index:0
[48;5;0m[38;5;213m[mpeg @ 0x41e8e076cd90] [0m[48;5;0m[38;5;196mbuffer underflow st=0 bufi=885 size=9828
[0m[48;5;0m[38;5;213m[mpeg @ 0x41e8e076cd90] [0m[48;5;0m[38;5;196mbuffer underflow st=0 bufi=2926 size=9828
[0m[48;5;0m[38;5;213m[mpeg @ 0x41e8e076cd90] [0m[48;5;0m[38;5;196mbuffer underflow st=0 bufi=4967 size=9828
[0m[48;5;0m[38;5;213m[mpeg @ 0x41e8e076cd90] [0m[48;5;0m[38;5;196mbuffer underflow st=0 bufi=7008 size=9828
[0m[48;5;0m[38;5;213m[mpeg @ 0x41e8e076cd90] [0m[48;5;0m[38;5;196mbuffer underflow st=0 bufi=9049 size=9828
[0mpts:792000 pts_time:8.8 dts:788400 dts_time:8.76 duration:0 duration_time:0 stream_index:0
[48;5;0m[38;5;213m[mpeg @ 0x41e8e076cd90] [0m[48;5;0m[38;5;196mbuffer underflow st=0 bufi=1253 size=1515
[0mpts:795600 pts_time:8.84 dts:792000 dts_time:8.8 duration:0 duration_time:0 stream_index:0
[48;5;0m[38;5;213m[mpeg @ 0x41e8e076cd90] [0m[48;5;0m[38;5;196mbuffer underflow st=0 bufi=1770 size=1970
[0mpts:799200 pts_time:8.88 dts:795600 dts_time:8.84 duration:0 duration_time:0 stream_index:0
[48;5;0m[38;5;213m[mpeg @ 0x41e8e076cd90] [0m[48;5;0m[38;5;196mbuffer underflow st=0 bufi=1832 size=3121
[0mpts:802800 pts_time:8.92 dts:799200 dts_time:8.88 duration:0 duration_time:0 stream_index:0
[48;5;0m[38;5;213m[mpeg @ 0x41e8e076cd90] [0m[48;5;0m[38;5;196mbuffer underflow st=0 bufi=743 size=1909
[0mpts:806400 pts_time:8.96 dts:802800 dts_time:8.92 duration:0 duration_time:0 stream_index:0
[48;5;0m[38;5;213m[mpeg @ 0x41e8e076cd90] [0m[48;5;0m[38;5;196mbuffer underflow st=0 bufi=866 size=1476
[0mpts:810000 pts_time:9 dts:806400 dts_time:8.96 duration:0 duration_time:0 stream_index:0
[48;5;0m[38;5;213m[mpeg @ 0x41e8e076cd90] [0m[48;5;0m[38;5;196mbuffer underflow st=0 bufi=1422 size=2679
[0mpts:813600 pts_time:9.04 dts:810000 dts_time:9 duration:0 duration_time:0 stream_index:0
[48;5;0m[38;5;213m[mpeg @ 0x41e8e076cd90] [0m[48;5;0m[38;5;196mbuffer underflow st=0 bufi=775 size=2344
[0mpts:817200 pts_time:9.08 dts:813600 dts_time:9.04 duration:0 duration_time:0 stream_index:0
[48;5;0m[38;5;213m[mpeg @ 0x41e8e076cd90] [0m[48;5;0m[38;5;196mbuffer underflow st=0 bufi=463 size=1524
[0mpts:820800 pts_time:9.12 dts:817200 dts_time:9.08 duration:0 duration_time:0 stream_index:0
[48;5;0m[38;5;213m[mpeg @ 0x41e8e076cd90] [0m[48;5;0m[38;5;196mbuffer underflow st=0 bufi=971 size=2360
[0mpts:824400 pts_time:9.16 dts:820800 dts_time:9.12 duration:0 duration_time:0 stream_index:0
[48;5;0m[38;5;213m[mpeg @ 0x41e8e076cd90] [0m[48;5;0m[38;5;196mbuffer underflow st=0 bufi=643 size=1720
[0mpts:828000 pts_time:9.2 dts:824400 dts_time:9.16 duration:0 duration_time:0 stream_index:0
[48;5;0m[38;5;213m[mpeg @ 0x41e8e076cd90] [0m[48;5;0m[38;5;196mbuffer underflow st=0 bufi=955 size=2376
[0mpts:831600 pts_time:9.24 dts:828000 dts_time:9.2 duration:0 duration_time:0 stream_index:0
[48;5;0m[38;5;213m[mpeg @ 0x41e8e076cd90] [0m[48;5;0m[38;5;196mbuffer underflow st=0 bufi=611 size=10883
[0m[48;5;0m[38;5;213m[mpeg @ 0x41e8e076cd90] [0m[48;5;0m[38;5;196mbuffer underflow st=0 bufi=2652 size=10883
[0m[48;5;0m[38;5;213m[mpeg @ 0x41e8e076cd90] [0m[48;5;0m[38;5;196mbuffer underflow st=0 bufi=4693 size=10883
[0m[48;5;0m[38;5;213m[mpeg @ 0x41e8e076cd90] [0m[48;5;0m[38;5;196mbuffer underflow st=0 bufi=6734 size=10883
[0m[48;5;0m[38;5;213m[mpeg @ 0x41e8e076cd90] [0m[48;5;0m[38;5;196mbuffer underflow st=0 bufi=8775 size=10883
[0m[48;5;0m[38;5;213m[mpeg @ 0x41e8e076cd90] [0m[48;5;0m[38;5;196mbuffer underflow st=0 bufi=10816 size=10883
[0mpts:835200 pts_time:9.28 dts:831600 dts_time:9.24 duration:0 duration_time:0 stream_index:0
[48;5;0m[38;5;213m[mpeg @ 0x41e8e076cd90] [0m[48;5;0m[38;5;196mbuffer underflow st=0 bufi=1965 size=2207
[0mpts:838800 pts_time:9.32 dts:835200 dts_time:9.28 duration:0 duration_time:0 stream_index:0
[48;5;0m[38;5;213m[mpeg @ 0x41e8e076cd90] [0m[48;5;0m[38;5;196mbuffer underflow st=0 bufi=1790 size=2061
[0mpts:842400 pts_time:9.36 dts:838800 dts_time:9.32 duration:0 duration_time:0 stream_index:0
[48;5;0m[38;5;213m[mpeg @ 0x41e8e076cd90] [0m[48;5;0m[38;5;196mbuffer underflow st=0 bufi=1761 size=3432
[0mpts:846000 pts_time:9.4 dts:842400 dts_time:9.36 duration:0 duration_time:0 stream_index:0
[48;5;0m[38;5;213m[mpeg @ 0x41e8e076cd90] [0m[48;5;0m[38;5;196mbuffer underflow st=0 bufi=361 size=2206
[0mpts:849600 pts_time:9.44 dts:846000 dts_time:9.4 duration:0 duration_time:0 stream_index:0
[48;5;0m[38;5;213m[mpeg @ 0x41e8e076cd90] [0m[48;5;0m[38;5;196mbuffer underflow st=0 bufi=187 size=1827
[0mpts:853200 pts_time:9.48 dts:849600 dts_time:9.44 duration:0 duration_time:0 stream_index:0
[48;5;0m[38;5;213m[mpeg @ 0x41e8e076cd90] [0m[48;5;0m[38;5;196mbuffer underflow st=0 bufi=392 size=3476
[0m[48;5;0m[38;5;213m[mpeg @ 0x41e8e076cd90] [0m[48;5;0m[38;5;196mbuffer underflow st=0 bufi=2433 size=3476
[0mpts:856800 pts_time:9.52 dts:853200 dts_time:9.48 duration:0 duration_time:0 stream_index:0
[48;5;0m[38;5;213m[mpeg @ 0x41e8e076cd90] [0m[48;5;0m[38;5;196mbuffer underflow st=0 bufi=989 size=2844
[0mpts:860400 pts_time:9.56 dts:856800 dts_time:9.52 duration:0 duration_time:0 stream_index:0
[48;5;0m[38;5;213m[mpeg @ 0x41e8e076cd90] [0m[48;5;0m[38;5;196mbuffer underflow st=0 bufi=177 size=2514
[0m[48;5;0m[38;5;213m[mpeg @ 0x41e8e076cd90] [0m[48;5;0m[38;5;196mbuffer underflow st=0 bufi=2218 size=2514
[0mpts:864000 pts_time:9.6 dts:860400 dts_time:9.56 duration:0 duration_time:0 stream_index:0
[48;5;0m[38;5;213m[mpeg @ 0x41e8e076cd90] [0m[48;5;0m[38;5;196mbuffer underflow st=0 bufi=1736 size=1974
[0mpts:867600 pts_time:9.64 dts:864000 dts_time:9.6 duration:0 duration_time:0 stream_index:0
[48;5;0m[38;5;213m[mpeg @ 0x41e8e076cd90] [0m[48;5;0m[38;5;196mbuffer underflow st=0 bufi=1794 size=2806
[0mpts:871200 pts_time:9.68 dts:867600 dts_time:9.64 duration:0 duration_time:0 stream_index:0
[48;5;0m[38;5;213m[mpeg @ 0x41e8e076cd90] [0m[48;5;0m[38;5;196mbuffer underflow st=0 bufi=1020 size=2595
[0mpts:874800 pts_time:9.72 dts:871200 dts_time:9.68 duration:0 duration_time:0 stream_index:0
[48;5;0m[38;5;213m[mpeg @ 0x41e8e076cd90] [0m[48;5;0m[38;5;196mbuffer underflow st=0 bufi=445 size=10058
[0m[48;5;0m[38;5;213m[mpeg @ 0x41e8e076cd90] [0m[48;5;0m[38;5;196mbuffer underflow st=0 bufi=2486 size=10058
[0m[48;5;0m[38;5;213m[mpeg @ 0x41e8e076cd90] [0m[48;5;0m[38;5;196mbuffer underflow st=0 bufi=4527 size=10058
[0m[48;5;0m[38;5;213m[mpeg @ 0x41e8e076cd90] [0m[48;5;0m[38;5;196mbuffer underflow st=0 bufi=6568 size=10058
[0m[48;5;0m[38;5;213m[mpeg @ 0x41e8e076cd90] [0m[48;5;0m[38;5;196mbuffer underflow st=0 bufi=8609 size=10058
[0mpts:878400 pts_time:9.76 dts:874800 dts_time:9.72 duration:0 duration_time:0 stream_index:0
[48;5;0m[38;5;213m[mpeg @ 0x41e8e076cd90] [0m[48;5;0m[38;5;196mbuffer underflow st=0 bufi=583 size=1601
[0mpts:882000 pts_time:9.8 dts:878400 dts_time:9.76 duration:0 duration_time:0 stream_index:0
[48;5;0m[38;5;213m[mpeg @ 0x41e8e076cd90] [0m[48;5;0m[38;5;196mbuffer underflow st=0 bufi=1014 size=2017
[0mpts:885600 pts_time:9.84 dts:882000 dts_time:9.8 duration:0 duration_time:0 stream_index:0
[48;5;0m[38;5;213m[mpeg @ 0x41e8e076cd90] [0m[48;5;0m[38;5;196mbuffer underflow st=0 bufi=1029 size=2621
[0mpts:889200 pts_time:9.88 dts:885600 dts_time:9.84 duration:0 duration_time:0 stream_index:0
[48;5;0m[38;5;213m[mpeg @ 0x41e8e076cd90] [0m[48;5;0m[38;5;196mbuffer underflow st=0 bufi=440 size=2107
[0mpts:892800 pts_time:9.92 dts:889200 dts_time:9.88 duration:0 duration_time:0 stream_index:0
[48;5;0m[38;5;213m[mpeg @ 0x41e8e076cd90] [0m[48;5;0m[38;5;196mbuffer underflow st=0 bufi=365 size=1590
[0mpts:896400 pts_time:9.96 dts:892800 dts_time:9.92 duration:0 duration_time:0 stream_index:0
[48;5;0m[38;5;213m[mpeg @ 0x41e8e076cd90] [0m[48;5;0m[38;5;196mbuffer underflow st=0 bufi=807 size=2743
[0mpts:900000 pts_time:10 dts:896400 dts_time:9.96 duration:0 duration_time:0 stream_index:0
[48;5;0m[38;5;213m[mpeg @ 0x41e8e076cd90] [0m[48;5;0m[38;5;196mbuffer underflow st=0 bufi=96 size=2118
[0m